<?xml version="1.0" encoding="utf-8"?>
<svg version="1.1" id="Layer_1" xmlns="http://www.w3.org/2000/svg" xmlns:xlink="http://www.w3.org/1999/xlink" x="0px" y="0px"
	 viewBox="0 0 3394.928 3273.853" enable-background="new 0 0 3394.928 3273.853" xml:space="preserve">
<g>
	<path d="M2942.376,2409.7c-6.533-8.728-17.122-0.656-29.565-18.944c-10.678-15.69-14.226-17.513-16.822-25.81
		c-8.013-25.611-12.953-14.385-39.934-39.615c-5.835-5.456-5.846-8.275-0.827-14.452c16.865-20.761,27.961,9.848,48.349,26.822
		c23.153,19.275,24.807,30.005,29.186,36.283c9.931,14.244,32.741,14.987,35.193,2.873c3.382-16.711,0.839-60.536,26.288-80.257
		c12.744-9.873,19.081,5.425,24.673-2.177c4.309-5.857,9.433-11.124,11.247-18.63c2.549-10.543,10.665-6.929,7.65,1.996
		c-9.952,29.464-6.133,9.111-10.913,28.64c-5.164,21.097-20.158,13.096-38.656,69.368c-1.812,5.508,1.852,6.615,5.22,2.193
		c6.534-8.579,6.728-13.518,13-20.01c0.854-0.884,1.556-2.296,1.616-3.5c0.653-13.156,25.657-25.386,26.044-35.246
		c0.221-5.636,3.59-9.409,7.855-12.058c9.805-6.09,16.711-15.214,25.008-22.871c9.744-8.992-2.558-16.184,11.39-24.461
		c11.119-6.598,19.09-18.709,32.653-37.38c10.454-14.392,55.621-37.728,70.084-146.765c4.651-35.055,1.16-48.365,15.183-56.211
		c8.607-4.816,15.914-12.06,25.238-15.945c23.411-9.756,10.566-9.732,24.903-13.967c33.214-9.813,55.347,14.902,60.31,29.379
		c42.738,124.644,27.566,313.614-13.009,449.194c-8.495,28.386-1.911,80.965-4.806,103.78
		c-15.96,125.785-18.573,220.401-53.492,233.863c-20.98,8.087-39.865-11.276-47.609-11.558
		c-53.092-1.937-75.217-17.967-124.661-28.961c-19.033-4.232-58.318-2.219-56.057-17.441c4.754-32.072-185.352-37.985-198.59-39.153
		c-145.42-12.821-218.816-19.54-446.956,14.563c-100.224,14.981-210.984,15.658-370.685-34.09
		c-22.527-7.017-86.615-21.303-139.568-41.963c-75.682-29.528-100.508-72.488-298.341-33.609
		c-13.138,2.581-3.108,0.482-83.714,170.137c-0.476,1.001-35.083,67.181-69.889,104.178c-4.37,4.644-7.479,5.046-13.406,1.787
		c-29.344-16.137-35.417-23.396-50.365-22.055c-12.352,1.108-40.963-10.313-171.792-48.101c-2.315-0.669-4.679-0.966-6.575,0.921
		c-7.242,7.208-15.981,13.023-21.092,21.959c0.986,2.826,3.271,2.733,5.07,3.07c8.542,1.6,14.804,8.873,17.22,13.975
		c8.561,18.081,25.731,21.416,29.706,23.359c3.886,1.9,1.288,4.397-7.037,14.155c-7.91,9.271-60.758-29.59-87.162-18.498
		c-4.441,1.866-1.544,4.061-0.106,9.365c1.161,4.281,3.867,6.169,8.232,7.438c24.898,7.232,47.329,19.64,68.088,34.863
		c7.26,5.324,15.817,8.543,22.387,14.826c0.875,0.837,2.413,1.224,3.692,1.355c7.965,0.812,21.672,10.217,23.483,18.092
		c1.139,4.951,4.604,8.934,4.991,14.435c0.983,13.833,25.672,23.519,36.188,28.28c10.253,4.641,69.927,27.674,153.678,52.411
		c25.836,7.631,58.451,10.853,74.714,35.749c29.866,45.719,29.295,79.566-20.989,102.032
		c-80.228,35.844-406.511,3.446-493.546-7.894c-66.716-8.692-20.262-5.999-113.043-5.915c-56.721,0.051-42.015,8.021-137.64-18.255
		c-14.193-3.9-62.511-11.061-58.957-32.885c9.461-58.107,0.14-3.658,9.272-74.452c3.058-23.709,12.601-47.07,14.209-70.862
		c0.91-13.464,0.053-71.483,19.62-72.533c41.286-2.219,4.293,47.564,146.251-175.674c5.245-8.25,5.776-9.664,4.117-11.436
		c-3.14-3.352-12.547,3.366-14.897,5.212c-25.916,20.359-55.359,37.331-87.213,49.809c-48.665,19.062-195.276,92.239-331.157,47.575
		c-123.632-40.638-233.873-144.476-292.1-317.344c-5.748-17.064-31.361-120.904-31.637-121.905
		c-2.752-9.991,1.087-14.979,6.351-23.146c9.363-14.524-10.289-31.685-32.414-190.613c-8.065-57.932-16.434-151.785-10.351-210.925
		c59.179-575.39,441.212-972.993,505.804-1012.391c64.173-39.143,166.728-59.455,194.461-119.946
		c18.946-41.325,32.505-47.633,45.047-131.024c22.14-147.209-47.403-248.979-3.369-412.331
		c15.989-59.05,29.038-65.353,42.797-87.935c2.589-4.249,4.674-8.81,8.095-12.531c0.657-0.714,1.256-1.645,1.476-2.573
		c5.569-23.493,31.743-27.918,35.93-36.281c1.87-3.736,4.777-2.708,17.862-10.612c11.457-6.921,24.481-10.012,36.855-14.694
		c15.643,1.769,25.565-12.518,37.024-7.954c20.024,7.976,10.942-7.595,42.207-21.459c3.349-1.485,6.356-3.45,10.354-2.438
		c1.458,0.369,3.419-0.013,4.787-0.738c22.395-11.876,23.859-13.435,24.267-15.185c2.117-9.09,11.098-10.622,16.835-15.608
		c9.429-8.195,12.934,13.452,20.084,7.409c6.135-5.185,11.208,5.227,20.03,4.984c2.899-0.08,4.496,2.662,6.301,4.548
		c12.335,12.89,20.838,6.511,37.413,8.255c4.679,0.492,6.662-4.822,10.754-4.304c3.503,0.444,5.202,5.164,9.522,4.581
		c5.871-0.792,11.816,0.968,17.757-1.12c8.385-2.947,13.668,10.315,17.842,5.442c3.654-4.266,10.785,0.824,15.184,0.453
		c3.919-0.33,6.31,1.757,6.072,6.004c-0.302,5.367,6.959,4.895,8.056,5.577c6.477,4.029,12.51,3.294,18.477-1.103
		c2.508-1.848,7.677-1.167,6.262,2.117c-1.51,3.503-4.476,4.673-3.912,7.824c0.826,4.612,7.611,7.37,10.667,11.455
		c1.872,2.503,4.045,2.772,6.988,2.396c6.804-0.868,10.663,2.536,10.803,9.227c0.041,1.958-0.476,3.937-0.816,5.893
		c-0.723,4.161,2.602,8.495,6.287,7.124c11.692-4.351,10.849,9.955,21.643,3.409c1.136-0.689,2.168-1.626,3.384-2.094
		c4.504-1.733,8.687-0.014,10.23,4.72c1.859,5.703,5.757,10.527,6.772,16.586c0.261,1.557,1.431,2.985,2.278,4.416
		c2.781,4.698,5.059,5.284,9.659,2.551c5.165-3.068,5.177-3.079,8.705,1.008c2.228,2.581,3.303,5.728,7.715,4.953
		c16.681-2.93,2.907,11.741,18.325,20.382c7.276,4.077,0.581,11.796,11.05,10.98c3.634-0.283,5.586,0.457,6.684,4.041
		c0.709,2.315,13.111,25.87,26.447,29.458c12.633,3.399,3.898,12.156,8.936,16.199c4.229,3.395-0.573,3.365,5.45,14.613
		c2.097,3.916,2.681,7.996,0.33,12.365c-1.622,3.016,0.063,5.171,3.312,5.011c4.144-0.203,7.692-3.043,8.913,0.577
		c2.078,6.155-1.419,6.646-7.437,11.197c-6.728,5.089,2.422,5.02-4.026,13.114c-6.022,7.56-6.112,10.81-10.666,12.937
		c-5.794,2.707-9.834,8.007-15.813,10.416c-1.885,0.76-3.342,2.102-3.975,4.207c-0.28,0.928-0.685,2.189-1.409,2.553
		c-9.344,4.705-16.868,26.07-26.775,26.588c-0.558,0.029-1.378,0.584-1.579,1.092c-5.041,12.771-19.904,5.94-19.079,15.992
		c0.658,8.02,2.734,10.608,1.8,17.811c-1.939,14.955,1.181,29.868,0.053,44.791c-1.342,17.754,10.08,18.07-1,65.155
		c-2.418,10.276,4.891,8.728-0.03,16.068c-8.896,13.27-22.746,17.275-15.586,34.544c24.473,59.029,77.708,108.891-0.965,123.404
		c-5,0.922-9.984,1.942-12.647,6.905c-11.337,21.128,3.274,22.093-3.736,34.435c-9.93,17.482-13.321,14.964-11.477,21.045
		c4.053,13.367,0.652,25.12-8.827,34.946c-8.591,8.905-16.876,13.522-19.212,57.877c-1.225,23.25-18.807,38.406-42.006,36.811
		c-24.904-1.712-79.512-15.14-101.89-7.83c-14.29,4.669-13.682,14.176-19.255,29.302c-4.863,13.196-9.024,5.974-27.818,33.494
		c-14.618,21.404-20.101,25.284-10.549,27.491c9.192,2.124,48.109,16.472,48.175,16.541c10.303,10.72,24.844,7.699,53.489,26.183
		c11.526,7.438,20.862,6.133,25.562,7.539c117.054,35.016,65.773,43.335,169.073,48.301c100.53,4.833,289.708-47.644,309.052-54.778
		c136.408-50.312,162.481-48.654,230.898-44.669c56.718,3.304,146.245,15.859,152.925,14.597
		c8.295-1.568,167.047-8.674,170.226-8.714c17.619-0.224,36.782,3.5,115.129-6.237c35.374-4.396,74.811,1.959,109.747,3.414
		c44.106,1.837,98.245-19.176,127.344-23.199c61.653-8.522,81.461-29.975,110.775-14.925c14.811,7.604,30.466,11.284,46.301,15.104
		c25.906,6.249,20.473,7.762,49.569,11.078c26.359,3.003,32.826,4.059,38.427,11.076c8.992,11.266,28.11,21.318,38.691,29.521
		c11.077,8.586,18.122,7.241,61.358,5.371c19.785-0.856,56.079-22.408,88.556-6.722c5.226,2.524,5.773,3.577,4.303,9.384
		c-6.231,24.618-20.277,18.928-43.881,27.592c-1.707,0.627-2.733,4.465,0.428,5.364c20.13,5.725,32.691,14.198,55.419,19.739
		c16.995,4.144,20,9.777,46.08,23.398c7.977,4.166,12.519,11.825,18.685,17.793c3.282,3.177,2.258,8.343,0.17,12.268
		c-6.746,12.683-12.031,12.921-16.213,12.709c-7.719-0.392-15.433-1.242-22.274-4.958c-18.225-9.9-38.238-15.528-56.961-24.23
		c-9.33-4.336-25.128-8.972-21.192,0.501c9.557,23.001,12.587,10.142,40.603,47.39c20.028,26.626,24.212,19.161,31.135,34.631
		c10.384,23.201,22.533,19.642,26.143,54.85c0.641,6.25-2.434,9.861-8.762,11.552c-32.252,8.616-29.175-16.624-58.672-30.011
		c-17.02-7.725-42.605-22.85-54.203-38.231c-7.37-9.775-9.917-7.27-19.114-11.448c-20.292-9.217-31.024-15.748-46.099-14.558
		c-1.772,0.14-24.493,1.03-42.055-10.354c-12.551-8.135-16.464,4.952-73.908,0.439c-4.225-0.332-15.315-2.471-22.772,8.54
		c-19.643,29.009-43.521,25.726-54.506,27.414c-18.032,2.773-8.12,13.648-28.852,24.132c-30.09,15.216-46.211,13.641-67.472,15.399
		c-16.694,1.38-32.007-6.691-40.896-17.037c-6.726-7.83-11.806-3.509-18.34-4.529c-32.473-5.067-82.882,4.614-115.889,19.624
		c-32.452,14.758-146.784,51.72-182.111,63.493c-104.036,34.672-324.203,76.398-454.88,49.987
		c-35.742-7.223-54.371,6.203-98.438-1.269c-119.969-20.342-123.695-0.051-194.769,17.56
		c-197.099,48.838-230.1,55.246-294.589,49.888c-85.247-7.083-93.532-18.995-98.089-5.785
		c-6.354,18.423-16.446,41.839-23.464,65.882c-4.383,15.016-8.637,30.023-14.713,44.52c-13.785,32.886-22.669,69.682-34.149,103.673
		c-11.039,32.689-37.658,49.522-88.454,99.254c-42.206,41.322-33.805,77.695-51.064,104.654
		c-24.657,38.516-48.08,48.038-73.141,95.155c-14.491,27.244-34.942,50.937-34.942,50.937c-1.384,2.655-0.008,7.118,10.714,4.558
		c3.192-0.762,65.339-26.566,81.549-34.999c74.299-38.648,77.553-46.429,188.759-77.891c134.57-38.072,72.927-20.106,145.902-48.582
		c0.619-0.241,1.357-0.259,1.899-0.602c13.906-8.789,30.453-11.225,44.922-18.677c1-0.515,10.999-5.122,13.17-2.878
		c6.37,6.586,2.585-1.607,120.88-42.015c12.4-4.235,15.415-1.475,24.661-3.06c26.701-4.575,57.889-1.177,83.06,5.612
		c44.659,12.046,63.594,70.526,99.066,103.785c11.379,10.668,14.112,2.172,28.626,29.286c11.417,21.328,7.816,31.821,13.355,48.891
		c3.087,9.512,4.622,10.779-12.318,134.71c-3.94,28.828-2.122,42.479-12.665,57.819c-6.324,9.2-8.5,17.12-22.181,40.221
		c-47.984,81.021-58.8,76.843-10.754,80.102c7.633,0.518,15.103,2.588,22.854,2.044c3.414-0.239,6.43,1.513,9.199,3.467
		c12.225,8.624,7.691,16.851,22.392,17.46c148.557,6.147,51.71,7.737,405.693,100.433c21.722,5.688,14.523-4.823,96.443,0.415
		c231.038,14.772,414.678,144.136,695.689,95.419c13.837-2.398,21.991-10.894,23.23-14.83c3.785-12.029,24.957-19.949,35.08-22.01
		C2933.123,2415.068,2938.206,2413.542,2942.376,2409.7z M1143.714,2814.973c-5.533-0.948-9.882-4.785-14.95-5.689
		c-14.368-2.562-38.979-23.023-39.173,9.563c-0.028,4.7-0.007,4.701,4.639,5.592c5.168,0.992,5.278,1.162,5.352,6.336
		c0.179,12.586-6.623,19.367-3.43,25.482c35.687-20.514,22.707-15.885,43.452-34.562
		C1141.255,2820.21,1143.406,2818.901,1143.714,2814.973z M2986.76,2341.862c4.913-1.906,26.048-34.599,17.408-37.58
		c-7.256-2.503-14.136,22.175-18.246,34.174C2985.526,2339.613,2985.404,2340.993,2986.76,2341.862z M751.484,2008.733
		c11.528,4.731,17.667-2.258,24.437-7.004c2.912-2.041,2.212-12.626-3.483-8.475
		C765.823,1998.077,759.263,2002.973,751.484,2008.733z M1137.47,2867.268c-6.833-5.873-9.677-9.654-13.689-6.337
		c-2.346,1.94-5.979,0.886-6.114,3.756c-0.063,1.352,1.124,1.685,1.965,1.564c5.262-0.754,10.188,0.748,15.177,1.963
		C1135.312,2868.337,1135.971,2867.824,1137.47,2867.268z"/>
</g>
</svg>
