<?xml version='1.0' encoding='utf-8'?>
<svg xmlns="http://www.w3.org/2000/svg" version="1.1" width="600px" height="976px" viewBox="0 0 600 976"> <g id="layer1"> <g style="fill:rgb(0,0,0); fill-opacity:1.0; stroke-linejoin: miter"> <path d="M224.48276,206.02684C224.77347,206.20494,225.85876,206.37517,226.8703,206.36555C228.17068,206.3531,229.00351,206.56175,229.65851,207.06136C230.16794,207.454,230.78506,207.77321,231.07407,207.77037C231.32693,207.76805,232.30606,208.15588,233.25006,208.65265C234.194,209.14944,235.53436,209.53406,236.22067,209.52744C237.05142,209.51959,237.81271,209.80118,238.46878,210.40903C239.01544,210.90955,239.6694,211.30093,239.95837,211.29807C240.21121,211.29578,240.53873,211.54529,240.64984,211.83325C240.76093,212.12134,241.41495,212.51239,242.10336,212.72263C242.79166,212.93274,243.33698,213.28876,243.33868,213.46936C243.34048,213.6499,243.74127,214.00754,244.24902,214.21936C244.75674,214.43124,245.15793,214.82477,245.15997,215.04144C245.16238,215.29437,245.56418,215.76007,246.07297,216.08032C246.58179,216.4006,246.98358,216.86646,246.986,217.11942C246.9884,217.37216,247.31802,217.83856,247.71878,218.19601C248.11923,218.51733,248.4502,219.12827,248.45367,219.48941C248.4574,219.88684,248.86206,220.64172,249.3729,221.17868C249.88376,221.71564,250.28833,222.47034,250.29181,222.83154C250.29553,223.22897,250.62762,223.94827,251.02979,224.45023C251.43195,224.952,251.76425,225.70755,251.76843,226.14108C251.77216,226.53833,252.1052,227.36609,252.50842,227.97626C253.16797,228.9455,253.24707,229.66714,253.29355,234.54358C253.33807,239.20331,253.24036,240.324,252.64111,241.88303C251.83063,244.02222,251.70688,249.98407,252.42184,252.9755C252.79718,254.45291,252.76794,255.17581,252.28159,257.20334C251.93307,258.54333,251.37073,260.17435,250.97916,260.79218C250.6242,261.44577,250.30634,262.2076,250.30875,262.46036C250.3164,263.25504,248.53378,265.72852,247.77722,265.95248C247.20135,266.17468,247.09683,266.573,247.1182,268.8126C247.1347,270.54648,246.96481,271.66803,246.60806,272.14102C246.32254,272.5049,246.07828,273.4104,246.08487,274.09683C246.09137,274.7831,245.85233,276.23047,245.57373,277.31668C245.01682,279.5257,245.35269,284.43552,246.36792,288.6163C246.66898,289.87784,247.09152,292.51086,247.36328,294.4951C247.75479,297.67023,248.01593,298.53485,249.63571,301.6984C252.02841,306.37173,253.68008,309.10153,255.39767,311.1804C256.16498,312.0761,257.22595,313.47485,257.73923,314.26474C258.94843,316.0594,260.8458,318.02817,261.38757,318.02298C261.60434,318.02084,262.6222,318.69757,263.64194,319.5548C264.6616,320.41208,265.78897,321.1961,266.1154,321.3375C266.47763,321.44244,266.7694,321.7286,266.77145,321.94537C266.7735,322.1621,267.17398,322.4834,267.68143,322.65918C268.1888,322.83493,268.59,323.2285,268.59302,323.5536C268.59576,323.8426,268.7427,324.09406,268.95938,324.09204C269.14005,324.09024,269.5787,324.6279,269.87344,325.2393C270.86774,327.21658,271.78607,328.7974,272.4424,329.44135C272.7348,329.79977,273.10464,330.6993,273.25565,331.38434C273.371,332.10574,273.77646,332.96884,274.14084,333.29047C274.5413,333.61172,274.83612,334.22305,274.83984,334.62042C274.8437,335.01776,275.1767,335.84552,275.54382,336.45605C275.94708,337.06635,276.3915,338.2181,276.50745,339.01172C276.65955,339.8051,277.0297,340.74075,277.35782,341.0627C277.6503,341.4212,277.98608,342.5378,278.1044,343.58435C278.22314,344.6669,278.59607,345.89172,278.96182,346.35776C279.47336,346.96704,279.66187,347.79605,279.67667,349.34927C279.6919,350.93866,279.88004,351.73154,280.4652,352.48468C281.12402,353.38144,281.23895,354.06674,281.3456,357.67828C281.41415,361.0733,281.53116,361.97528,282.0782,362.5119C282.845,363.3717,282.89774,365.1051,282.18454,366.08734C281.47144,367.06946,281.56436,369.2362,282.3742,370.81787C283.03616,372.03992,283.0771,372.54523,282.82083,375.9795C282.6602,378.07623,282.6469,380.46057,282.76355,381.32648C282.91837,382.40875,282.81583,383.02386,282.423,383.49725C282.06586,383.9342,281.79,385.30957,281.6342,387.912C281.4787,390.55054,281.20468,392.10657,280.74405,393.0503C280.283,393.95776,280.07568,394.93506,280.19366,395.94543C280.23804,396.812,280.11365,398.90845,279.84113,400.64496C279.46756,403.14124,279.44012,404.04462,279.80823,404.76355C280.14056,405.51898,280.11,406.0973,279.6566,407.79944C279.30737,409.06714,279.17603,410.4411,279.32767,411.1983C279.44305,411.91968,279.67075,413.07355,279.78568,413.7588C279.97562,414.73236,279.8704,415.05853,279.43857,415.24323C278.71887,415.53918,278.69315,416.62305,279.38455,417.1584C279.676,417.4085,280.0441,418.12744,280.15833,418.74054C280.30905,419.38922,280.67783,420.18048,281.00638,420.53864C281.51758,421.11163,281.51892,421.25616,280.98615,422.20056C280.20456,423.5808,280.24927,424.48352,281.12344,425.23376C281.5239,425.555,281.85486,426.16602,281.8586,426.5633C281.86243,426.9607,282.2663,427.64325,282.77615,428.0719C283.3224,428.53632,283.69022,429.21912,283.69537,429.76093C283.70056,430.3028,283.995,430.878,284.43127,431.16278C284.93973,431.4469,285.16165,431.98663,285.1696,432.8175C285.17923,433.82898,285.32605,434.08044,286.0864,434.25372C286.59348,434.39343,286.99393,434.71478,286.9967,435.00378C286.99945,435.29266,287.2547,435.54315,287.54364,435.54034C287.83264,435.53766,288.1615,435.9319,288.31088,436.4361C288.42404,436.94092,288.78903,437.33472,289.1502,437.33124C290.12552,437.32196,291.36368,438.35773,291.37186,439.22467C291.37643,439.69427,292.03488,440.555,293.01846,441.4126C293.92905,442.1986,294.7341,443.27472,294.88412,443.85132C295.149,445.11316,296.53647,446.65332,297.36728,446.6454C297.69235,446.64227,297.94653,446.78436,297.94858,447.00104C297.95038,447.18158,298.60605,447.75342,299.36908,448.2157C300.38678,448.8562,300.86206,449.46582,301.05066,450.29492C301.20132,450.94373,301.57053,451.77106,301.86255,452.09338C302.1547,452.4157,302.70956,453.7832,303.04773,455.15277L303.68527,457.6031L306.8355,458.36774C308.5735,458.7846,310.7122,459.55902,311.6204,460.0923C315.10742,462.0819,322.73297,469.99286,322.7488,471.65448C322.75674,472.48523,324.9307,476.94397,326.1014,478.48608C326.6873,479.31134,328.64514,483.8444,332.4577,493.4534C333.01266,494.8209,333.96902,496.618,334.55457,497.40707C335.14014,498.19632,336.4226,500.0986,337.37692,501.67905C338.33093,503.22324,339.61075,504.8367,340.1567,505.26498C341.175,505.9777,342.66974,507.40848,343.76547,508.66238C344.3131,509.27127,347.11798,511.70096,349.33862,513.4861C350.0304,514.0575,350.6142,514.666,350.6156,514.81055C350.6187,515.1356,352.36978,516.9252,352.6949,516.922C352.80325,516.921,353.27625,517.2777,353.71387,517.70715C354.15186,518.1725,355.06244,518.9586,355.68164,519.4945C356.3009,520.0305,356.81247,520.6398,356.81448,520.85657C356.8166,521.07324,357.21738,521.43054,357.7252,521.6426C358.2329,521.8544,358.63406,522.2479,358.6368,522.537C358.63922,522.7898,358.82193,523.00476,359.00253,523.0032C359.5082,522.9983,363.0007,525.5659,363.00418,525.9271C363.00552,526.07166,363.25977,526.2136,363.54877,526.2108C364.37955,526.203,371.3839,533.361,371.39252,534.2641C371.40045,535.09503,373.4849,537.7482,375.88956,539.8929C379.53348,543.1816,383.8,547.3675,386.46445,550.232C387.85123,551.69977,389.31058,553.2032,389.7478,553.5964C395.79843,559.2464,400.0196,562.45734,402.48483,563.37305C403.68134,563.8313,410.97412,567.1575,412.68048,568.0442C414.09644,568.7893,419.57156,570.9046,422.14377,571.67487C422.9409,571.9201,425.36514,572.3305,427.57065,572.5262C432.9586,573.0888,437.04797,573.84454,438.86194,574.65814C439.69617,575.0114,440.56622,575.3282,440.78296,575.32623C441.50537,575.3194,448.39676,578.21576,448.39987,578.54083C448.40125,578.68536,449.05453,579.00433,449.8513,579.2133C450.6119,579.4228,451.37357,579.74066,451.48367,579.9202C451.63016,580.1357,452.24802,580.52716,452.8652,580.8464C454.49826,581.62555,455.98718,582.4422,458.20404,583.8299C459.2581,584.50616,460.6022,585.28815,461.14682,585.57196C464.45108,587.3466,466.55923,588.6993,468.05295,590.02167C468.99973,590.8073,470.49167,591.94904,471.43607,592.482C472.3446,593.0512,474.9626,594.8326,477.18185,596.4731C479.43723,598.11334,481.94724,599.9317,482.7109,600.4664C484.23837,601.53546,487.22415,603.9996,488.75504,605.4301C490.21335,606.825,490.35886,606.93207,491.2334,607.7183C491.67065,608.11163,492.10718,608.43256,492.21558,608.4316C492.32394,608.4305,493.48984,609.467,494.83875,610.7546C496.22375,612.04193,497.4258,613.0778,497.60638,613.0761C497.75092,613.07477,498.33298,613.50275,498.9525,614.07477C500.59253,615.57635,502.92255,617.4688,503.68488,617.8588C504.04816,618.0722,506.04968,619.6064,508.12442,621.24835C510.16345,622.9268,513.14545,624.9937,514.7792,625.84503C516.37714,626.733,518.08484,627.7642,518.5225,628.19366C519.3237,628.8724,519.7579,628.9405,523.4412,628.79694C527.1972,628.6889,527.5949,628.7211,528.54126,629.4709C529.45123,630.18463,530.1024,630.2868,534.72736,630.38715C538.1242,630.4992,540.0407,630.6977,540.3685,630.9836C540.58765,631.2343,541.02325,631.44696,541.3122,631.44415C542.1069,631.4366,546.1701,633.2402,547.0442,633.9904C547.445,634.34796,547.9534,634.632,548.1701,634.62994C549.0371,634.62164,553.0164,638.9909,553.0254,639.9301C553.02673,640.0745,553.4689,640.9736,553.9839,641.94403C554.90314,643.633,554.9413,643.8494,554.84576,648.98004C554.8128,653.0986,554.6456,654.5091,554.18396,655.3443C553.8644,655.9255,553.4791,657.1934,553.37976,658.1337C553.28033,659.0738,552.96484,660.08844,552.67865,660.38007C552.3922,660.6356,552.0733,661.28894,551.93396,661.8323C551.69183,662.95447,549.1916,665.9404,548.21906,666.2388C547.7509,666.3878,547.43195,667.041,547.15717,668.52466C546.9149,669.64685,546.53107,671.05945,546.248,671.6763C546.0006,672.25665,545.7303,674.21,545.63916,676.01715C545.54767,677.788,545.24426,680.06683,544.96497,681.081C544.2997,683.29095,544.25165,689.6132,544.9115,690.61835C545.24176,691.15717,545.2463,691.6268,544.93146,692.71344C544.722,693.47406,544.37286,694.74176,544.16376,695.5385C543.85236,696.98663,540.8543,700.80817,540.05963,700.81586C539.8429,700.8178,539.4848,701.1464,539.27185,701.54584C539.02246,701.90936,538.268,702.35004,537.547,702.5014C536.8617,702.6164,536.28613,702.8747,536.28754,703.0192C536.29065,703.3444,534.63635,704.1187,533.9139,704.1257C533.62494,704.12836,532.94165,704.46,532.36786,704.899C531.4353,705.5943,530.92993,705.6352,523.63336,705.7049C517.34784,705.7287,515.3598,705.6032,513.0067,705.0837C511.4136,704.7016,509.1703,704.32574,507.97723,704.2286C506.82062,704.1674,505.62552,703.8537,505.2616,703.5682C504.93372,703.2823,504.13556,702.92865,503.5201,702.79C502.8689,702.6879,502.3247,702.44025,502.3233,702.2957C502.3216,702.1152,501.91907,701.5771,501.4082,701.0401C500.277,699.8588,500.18793,698.08954,501.14532,696.20184C501.5357,695.47565,501.9585,694.35175,502.13358,693.77216C502.44763,692.6131,504.8161,690.9648,507.33704,690.1458C507.6972,690.0341,508.05322,689.48883,508.19254,688.94574C508.50525,687.6423,510.3656,685.7459,511.62677,685.40875C512.9244,685.10736,513.062,684.3836,512.8658,678.96686L512.7151,674.52496L510.8924,672.8083C509.87204,671.8787,508.74503,671.1309,508.31155,671.1351C507.91425,671.13885,507.261,670.82,506.89594,670.4262C506.53094,670.03217,505.94992,669.7126,505.62482,669.71576C505.29974,669.7188,504.68256,669.3996,504.2453,669.0064C503.80804,668.6131,503.33536,668.29254,503.11865,668.2946C502.7213,668.2985,500.71912,666.69183,497.22076,663.5102C495.5082,661.9732,494.80603,660.3182,495.4108,659.3371C495.65955,658.9012,496.4535,658.8212,498.69336,658.836C501.11426,658.8852,501.8019,659.02313,502.45795,659.63104C502.96814,660.09576,503.72906,660.3414,504.74048,660.3317C506.25757,660.3173,506.25757,660.3173,506.2445,658.94476C506.23758,658.2222,505.9018,657.1055,505.49896,656.53143C505.0958,655.9212,504.7638,655.2017,504.76068,654.87665C504.75757,654.5516,504.4273,654.0129,504.063,653.6912C503.66217,653.3338,503.2587,652.68744,503.1455,652.1828C502.95905,651.5704,502.66763,651.3204,502.01746,651.3266C501.36725,651.3327,501.11267,651.1545,501.1075,650.6126C501.1037,650.2153,500.845,649.6037,500.55298,649.28143C498.76367,647.27545,495.88422,644.5937,494.72076,643.81C493.99347,643.3111,493.01126,642.5981,492.6102,642.2045C491.66275,641.3465,490.86325,640.84845,488.79538,639.9289C487.96072,639.5395,487.26996,639.0765,487.26785,638.8597C487.26617,638.67914,486.8303,638.43036,486.32355,638.32697C485.78036,638.18756,484.21994,637.4438,482.8397,636.6622C481.42374,635.91705,479.89935,635.17303,479.42877,635.06915C478.95816,634.9653,478.41324,634.6453,478.15762,634.3588C477.9381,634.07196,477.46646,633.8597,477.1414,633.86285C476.81628,633.8659,475.72885,633.47894,474.7487,632.9825C473.73288,632.52264,472.68118,632.09906,472.39224,632.10187C472.10327,632.10455,471.26968,631.82355,470.57956,631.4327C469.8898,631.0782,468.7659,630.65533,468.11438,630.5169C467.4628,630.37885,466.8095,630.0599,466.6987,629.80804C466.62375,629.5197,466.00656,629.2005,465.3911,629.06195C463.68997,628.717,459.80972,627.16425,457.37686,625.8509C456.2147,625.21173,454.83585,624.57477,454.293,624.4716C453.78598,624.33185,453.0969,624.0495,452.8055,623.7994C452.51413,623.5494,451.426,623.09,450.44757,622.77423C449.43307,622.4588,447.72812,621.7164,446.6386,621.11273C445.54944,620.5451,443.5899,619.6246,442.28473,619.1313C440.97955,618.638,439.4916,617.92975,438.94635,617.57367C438.43686,617.1811,437.7839,616.8984,437.49493,616.9012C437.24207,616.9036,435.973,616.41,434.66675,615.8083C431.1103,614.1082,430.2038,613.75555,429.1539,613.51276C428.64716,613.40924,427.92093,613.01874,427.55597,612.6248C427.22742,612.2668,426.46576,611.9489,425.92395,611.95404C425.34595,611.95966,424.2599,611.7171,423.53473,611.435C422.77344,611.15326,421.18024,610.77106,420.0223,610.56537C418.82858,610.3962,417.4879,609.9754,417.05173,609.6906C416.5794,609.4062,415.9629,609.1591,415.67395,609.1619C415.34885,609.165,413.86404,608.7818,412.34213,608.2906C410.67535,607.7646,408.7213,607.42206,407.45706,607.43414C406.30118,607.4451,404.6375,607.2442,403.80396,606.9632C402.9343,606.68243,401.26892,606.30096,400.11096,606.0953C398.91687,605.88995,397.6127,605.50507,397.21295,605.2559C396.77676,604.9711,395.54553,604.65765,394.46048,604.5236C393.37543,604.38947,391.99976,604.07745,391.38293,603.79425C390.80252,603.54694,389.06146,602.8051,387.57428,602.169C386.08707,601.5329,383.90805,600.3255,382.74426,599.5057C381.47134,598.6148,379.6205,597.7293,378.02637,597.23883C376.5774,596.81915,374.91064,596.293,374.33026,596.0457C372.0814,595.09186,367.58054,592.8589,367.3972,592.57166C367.28748,592.4282,366.88873,592.2876,366.5275,592.2909C366.1663,592.29443,365.36786,591.90466,364.78503,591.4044C364.1662,590.90454,363.58444,590.5127,363.47607,590.5137C363.15097,590.51685,358.17957,588.18005,357.45233,587.6813C356.87054,587.28955,352.11346,584.69775,350.37143,583.8474C349.75458,583.5642,348.30072,582.6389,347.1373,581.8552C345.97345,581.0355,344.30185,580.0038,343.43008,579.50635C342.5945,579.00867,340.84958,577.86926,339.5764,576.94214C338.3389,575.97864,336.22943,574.48145,334.95624,573.5543C333.64655,572.59155,332.00833,571.2705,331.27893,570.55493C329.96652,569.3032,329.93002,569.26733,326.06265,569.0514C323.89392,568.9276,321.57898,568.62463,320.92603,568.3419C320.237,568.05945,318.68066,567.74915,317.41513,567.6168C316.18594,567.52,314.4841,567.1029,313.64984,566.7495C312.81516,566.3602,311.51202,566.0836,310.75348,566.0908C309.995,566.09814,308.8724,565.8197,308.29074,565.428C307.67316,565.07263,306.261,564.72485,305.10413,564.62744C303.87494,564.5309,302.78848,564.2522,302.3513,563.859C301.95047,563.5016,300.97168,563.1497,300.1399,563.04926C299.2719,562.94904,298.50992,562.59515,298.32593,562.23553C298.14218,561.91223,297.41592,561.5217,296.69247,561.4203C295.78806,561.2844,294.9521,560.7506,294.04007,559.82007C292.2522,557.9585,291.41037,556.81055,291.40555,556.30493C291.40076,555.7992,289.3211,553.6516,288.85156,553.656C288.6709,553.65784,288.34268,553.3358,288.12222,552.94055C287.90167,552.54517,287.39288,552.225,287.03162,552.2284C286.63434,552.2322,285.94415,551.84143,285.50592,551.33984C285.06766,550.83826,284.48584,550.44653,284.1969,550.4492C283.94406,550.45166,283.29083,550.1327,282.7813,549.74023C282.27173,549.3478,281.47406,549.03015,281.0045,549.03467C280.53488,549.0392,279.8093,548.72095,279.40814,548.3274C278.93417,547.8623,278.20932,547.61633,277.30627,547.625C276.5477,547.6322,275.28036,547.3192,274.518,546.9291C273.7192,546.5032,272.34277,546.1189,271.4384,545.98315C270.5343,545.8834,269.51944,545.53186,269.15552,545.24634C268.82764,544.96045,267.63177,544.57446,266.51074,544.4407C265.38953,544.30676,264.19376,543.9209,263.86588,543.635C263.5016,543.31335,262.92123,543.06604,262.5239,543.0698C262.12656,543.0737,261.18423,542.75745,260.3858,542.3677C258.67978,541.51697,257.74036,541.48987,256.6639,542.2588C256.23328,542.5519,254.71951,542.9275,253.2396,543.05005C251.50717,543.21106,250.35397,543.5111,249.78015,543.9501C249.27853,544.3883,248.34183,544.65,247.43872,544.6587C246.57187,544.667,245.5271,544.96594,244.88107,545.40564C244.27075,545.80884,243.55148,546.14087,243.22638,546.1439C242.93738,546.1467,242.14651,546.55164,241.46506,547.06384C240.78351,547.5762,240.02878,547.9806,239.73985,547.9834C239.45085,547.9862,238.83986,548.31714,238.33794,548.71936C237.83607,549.12146,237.11674,549.45337,236.75557,549.4569C236.3943,549.46045,235.99998,549.7892,235.8955,550.1876C235.79097,550.58606,235.43275,550.91455,235.17989,550.9169C234.89098,550.9197,234.42485,551.2854,234.10393,551.7219C233.56966,552.5217,233.35332,552.56006,227.6461,552.6145C222.69746,552.6616,221.61269,552.5636,221.06645,552.09924C220.666,551.77795,219.75853,551.317,219.03392,551.10706C218.3091,550.8612,217.5103,550.4353,217.29088,550.14844C217.03563,549.89795,216.31078,549.6521,215.66057,549.6582C214.93816,549.66516,214.14034,549.34766,213.55724,548.8113L212.57329,547.9175L200.58163,548.10425C190.10666,548.24036,188.2638,548.1858,186.19968,547.66345C184.89578,547.3148,182.14615,546.87134,180.04932,546.7108C177.95221,546.51404,175.85344,546.1366,175.34529,545.88855C174.83705,545.6405,173.49791,545.3644,172.34062,545.23096C171.18361,545.13354,169.66316,544.78687,168.97404,544.5044C168.32146,544.2578,166.22224,543.84436,164.34224,543.68164C162.4618,543.4828,160.4717,543.1406,159.89174,542.92944C159.34773,542.7178,156.85164,542.34424,154.35646,542.0791C151.86134,541.81384,148.85982,541.4812,147.66603,541.31213C144.66353,540.8711,139.28137,540.9225,137.55206,541.40857C136.7594,541.6328,134.81189,541.97656,133.26038,542.172C131.67285,542.3678,130.23071,542.67053,130.08752,542.8164C129.69403,543.2175,130.43555,548.99036,131.17896,551.1869C132.07281,553.9961,132.56451,563.88965,132.21497,572.67114C132.03992,577.044,131.75513,581.27325,131.58209,582.06976C131.37292,582.8665,130.99115,584.4958,130.74963,585.69025C130.4721,586.88495,130.018,588.51495,129.73657,589.31244C129.4552,590.1099,129.2124,591.1597,129.18109,591.66583C129.18585,592.1716,128.9413,593.0409,128.62209,593.6581C127.80574,595.1831,126.81813,601.4783,126.43953,607.2257C126.128555,612.5029,125.894,614.4198,125.43001,615.0022C125.28725,615.1842,124.99257,618.36584,124.77492,622.05273C124.59328,625.73926,124.26759,629.46313,124.0594,630.36816C123.609146,632.3955,122.91554,646.7798,122.72421,657.005L122.6166,664.66455L123.7457,665.62915C124.32889,666.1655,125.27933,667.3485,125.8298,668.24646C126.67471,669.7195,126.82535,670.3683,127.00467,674.01514C127.144745,677.33716,127.334015,678.23865,127.84451,678.7395C128.31857,679.2046,128.58078,680.17737,128.74496,682.23486C128.86813,683.7871,129.18094,686.2766,129.41177,687.7556C129.72171,689.9563,129.6943,690.8596,129.27774,692.63367C128.96365,693.7927,128.7233,695.09546,128.72702,695.4928C128.73422,696.25134,126.38638,700.0669,125.88071,700.07166C125.700165,700.07336,125.05679,700.8021,124.451385,701.71094C123.418365,703.23804,123.23868,703.34814,121.72164,703.3627C120.6379,703.3729,119.77346,703.63403,119.09188,704.14636C118.159386,704.84155,117.47372,704.9204,110.900955,705.1277C106.96474,705.27356,103.065994,705.5637,102.27345,705.7881C100.61628,706.27344,87.720276,706.32434,82.87549,705.9009C80.16388,705.6738,79.47796,705.71655,77.82232,706.34644C76.77825,706.71765,75.08349,707.05896,74.072075,707.0687C73.06066,707.07825,70.35473,707.4292,68.119,707.8479C61.5197,709.0669,42.301178,709.0697,38.893764,707.8379C38.603725,707.7323,37.69833,707.48804,36.93771,707.27856C35.887417,706.9995,35.341457,706.5713,34.863247,705.6727C34.495445,704.98987,33.94674,704.2726,33.656395,704.13086C32.96627,703.7401,32.543114,701.03467,32.9656,699.87476C33.14138,699.3673,34.140648,698.0934,35.14175,697.0001C36.607937,695.43274,37.290066,694.9928,38.624172,694.7272C39.52554,694.53796,40.497284,694.16736,40.78311,693.8396C41.10544,693.54736,41.464325,693.29126,41.608856,693.2898C41.753265,693.28845,42.57791,692.6304,43.437164,691.8274C44.29654,691.0244,45.336887,690.25586,45.7692,690.1433C46.165257,689.9951,46.84769,689.5912,47.2775,689.1898C47.74277,688.7517,48.78684,688.3806,49.797333,688.26263C50.735382,688.1452,51.815887,687.80975,52.138214,687.51764C52.460297,687.1895,53.50473,686.85443,54.407078,686.7735C55.633823,686.6174,56.388584,686.2128,57.67795,685.0445C58.5734,684.24115,59.466465,683.185,59.64255,682.7137C59.818943,682.2786,60.17673,681.914,60.46561,681.9112C60.754673,681.9084,61.077003,681.6164,61.218117,681.25385C61.4282,680.56537,64.37205,678.6226,65.2028,678.6147C65.49174,678.6119,65.70646,678.393,65.70371,678.10406C65.699135,677.63446,68.42448,675.51324,70.688034,674.22723C71.693954,673.63983,72.44658,673.0184,73.52037,671.96063C74.45085,671.0485,77.28618,669.1069,77.75578,669.1025C78.51427,669.0953,79.58592,667.8206,79.82805,666.6984C79.966415,666.0468,80.392136,665.24805,80.75029,664.91943C81.35918,664.3717,81.425644,663.75696,81.38359,659.3501C81.3488,655.7018,81.47795,654.1112,81.86571,653.09595C82.18388,652.3705,82.53032,650.81384,82.62761,649.65686C82.79344,648.1019,83.074875,647.30444,83.75384,646.5393C84.25445,645.9928,84.82824,645.5537,85.0089,645.552C85.189445,645.5503,85.799736,645.1471,86.40893,644.6355C87.34057,643.8318,87.80901,643.719,90.48205,643.6936L93.51623,643.6647L93.749504,641.6033C94.0498,638.9995,93.5415,627.3721,93.01287,624.9929C92.82335,624.05536,92.35515,620.4112,92.033005,616.94635C91.711044,613.4815,91.27849,609.80096,91.052475,608.8277C90.826035,607.8184,90.47923,605.54584,90.24565,603.7779C90.047775,601.9737,89.625595,599.37665,89.32286,597.9345C89.02013,596.4924,88.74663,594.3276,88.73454,593.0633C88.686325,591.7994,88.52104,589.6335,88.291306,588.263C87.09672,580.43536,86.81834,577.7647,86.748146,574.18884C86.72196,571.4436,86.56327,569.964,86.19761,569.4979C85.464455,568.385,85.190895,562.427,84.949554,540.935C84.78653,523.84955,84.83359,521.2121,85.325836,519.7985C85.64267,518.92865,86.13254,517.262,86.37442,516.1038C87.13913,512.9537,90.310394,508.37155,92.53854,507.1583C93.07761,506.86404,94.26175,506.02194,95.1575,505.2548C96.08909,504.45114,96.95017,503.82877,97.130775,503.827C97.27531,503.82565,98.3906,503.34543,99.5767,502.71994C101.59025,501.72543,104.813576,498.80466,104.80601,498.00998C104.80418,497.82944,103.89091,496.7543,102.79653,495.64493C100.826744,493.64066,100.78951,493.53262,100.770226,491.50986C100.75124,489.52316,100.89266,489.19662,103.20644,485.59824C104.559044,483.4902,105.84255,481.7078,106.02175,481.56155C106.23751,481.45114,106.58633,480.1473,106.82528,478.69998C107.02865,477.28928,107.37704,475.94925,107.55599,475.76694C107.698326,475.5488,107.83706,474.93338,107.8312,474.3193C107.825645,473.7413,108.21029,472.40103,108.70565,471.3126C109.20127,470.26035,109.76438,468.70154,109.936806,467.8329C110.31443,465.7702,111.98592,459.21555,112.19949,458.8884C112.27042,458.74326,112.51071,457.44052,112.7496,455.95712C112.95212,454.47403,113.2634,453.0261,113.404816,452.69962C113.58261,452.4089,113.89114,450.6721,114.12717,448.89957C114.32706,447.1275,114.70682,445.28168,114.954865,444.7735C115.20279,444.26526,115.51657,443.0703,115.6514,442.05743C115.78665,441.0808,116.09958,439.81354,116.38333,439.26892C116.667145,438.7243,116.87625,437.92767,116.871796,437.45807C116.86728,436.9884,117.496185,434.74274,118.30521,432.4591C119.07822,430.1759,119.92093,427.6391,120.20236,426.84167C120.62375,425.57324,121.1904,424.3758,123.176544,420.5276C123.42459,420.01947,123.95914,419.25574,124.31662,418.85492C124.67404,418.4541,125.384,417.14685,125.91501,415.98578C126.44534,414.78864,127.36667,412.9013,128.00613,411.7754C128.60953,410.64972,129.24594,409.1986,129.34811,408.54742C129.4863,407.8958,129.98239,406.87964,130.48221,406.26068C130.98239,405.67798,131.37253,404.91565,131.36935,404.5905C131.366,404.22937,132.25491,402.7397,133.39664,401.24768C135.78578,397.9736,138.30244,392.9283,138.6072,390.79398C138.74336,389.92575,139.44716,387.96835,140.1913,386.44388C140.93538,384.91965,141.64095,383.14282,141.77986,382.56348C141.91847,381.948,142.34438,381.14917,142.70174,380.74847C143.05916,380.34766,143.4496,379.62134,143.58968,379.15045C143.87001,378.24463,146.5749,373.9922,147.50545,373.0802C147.75557,372.78876,148.11122,372.20734,148.25154,371.77258C148.63686,370.50458,152.67378,365.76984,156.9327,361.57477C159.11598,359.45868,160.90382,357.5271,160.90211,357.34644C160.90004,357.12976,161.43428,356.3299,162.04073,355.5293C162.6833,354.7284,163.60945,353.34692,164.1072,352.5113C164.605,351.67563,165.38765,350.40387,165.8503,349.67694C170.44518,342.84158,173.15569,339.16718,174.16011,338.43503C174.51897,338.1787,174.80443,337.8147,174.80272,337.6341C174.80067,337.41742,175.54851,336.2904,176.47632,335.08945C177.43991,333.852,178.6528,332.25092,179.1878,331.52322C181.86243,327.88528,188.95865,321.96536,190.6564,321.94916C190.9815,321.94604,191.77298,321.61334,192.41971,321.24594C193.06613,320.84247,194.3266,320.433,195.2283,320.27994C196.12991,320.1269,197.42654,319.71707,198.10938,319.3493C198.7922,318.98157,200.1253,318.60754,201.06311,318.45422C202.03705,318.30035,202.79309,318.0403,202.79172,317.89578C202.78824,317.53455,204.4426,316.76016,205.27347,316.75223C205.67075,316.74838,206.0653,316.45572,206.17062,316.12958C206.3471,315.69437,206.49088,315.6207,206.81912,315.9427C207.43906,316.551,208.4498,316.46902,208.69604,315.78036C209.01285,314.9103,208.91476,312.2019,208.54422,311.2301C208.35883,310.7261,207.90192,308.27396,207.55206,305.6762C207.16626,303.11508,206.55829,299.978,206.18509,298.7172C205.77567,297.4568,205.4722,295.94235,205.46667,295.36447C205.45325,293.9557,204.24265,292.01654,202.86246,291.23492C202.28107,290.87927,201.80798,290.52255,201.80664,290.37802C201.8052,290.23355,201.14746,289.44507,200.30841,288.58612C199.5054,287.72684,198.40808,286.29233,197.8941,285.43008C197.344,284.56836,196.53824,283.42017,196.02774,282.91928C194.20306,280.986,192.67972,276.5572,190.82735,267.941C190.63704,266.93106,190.079,265.2386,189.63518,264.1592C188.89552,262.35992,188.8535,261.7462,188.9901,257.12106C189.12651,252.49582,189.08516,251.95422,188.4257,250.9852C187.50957,249.62122,187.41356,247.12958,188.27223,246.25433C188.73763,245.81638,188.94548,244.87521,188.99931,242.96002C189.11974,240.43018,189.08156,240.21371,187.72435,238.05927C186.62346,236.26355,186.36299,235.47116,186.31282,233.99057C186.30275,232.94296,186.47337,231.89386,186.68764,231.6388C186.90163,231.34781,187.18309,230.55045,187.2849,229.86313C187.42287,229.17523,187.80782,227.87112,188.19649,226.96442C188.54912,226.05777,188.93538,224.89816,189.03856,224.35532C189.14171,223.8125,189.49684,223.1589,189.78267,222.83115C190.06892,222.53928,190.31721,222.06738,190.3148,221.81442C190.3124,221.56168,190.70323,220.87149,191.20338,220.28867C191.70357,219.70584,192.09433,219.01584,192.09192,218.76303C192.08575,218.11285,196.98752,213.15317,197.6377,213.14694C197.9266,213.1441,198.28583,212.92386,198.42758,212.63342C198.7825,211.97986,201.04306,210.3689,202.12354,210.03348C202.55573,209.88489,203.23782,209.44476,203.59567,209.0802C203.95337,208.71548,204.56439,208.38449,204.92557,208.3811C205.25064,208.37808,206.15057,208.04425,206.90535,207.6397C208.0554,207.01472,209.28209,206.85844,215.56483,206.54549C219.57268,206.32677,223.11049,206.07628,223.39806,205.92891C223.68575,205.78172,224.19202,205.8491,224.48276,206.02684 Z M174.41331,391.46384C174.09373,392.04495,173.70119,392.55447,173.52061,392.55618C173.34001,392.5579,173.09065,392.92148,172.95024,393.35635C172.7397,394.00864,171.10197,396.51675,170.3145,397.28287C170.20723,397.3923,169.67296,398.19217,169.06749,399.1011C168.4981,400.0096,167.42833,401.4649,166.71452,402.37482C166.00072,403.28473,165.25218,404.33954,165.03923,404.7389C164.82634,405.13824,163.18437,407.213,161.39787,409.28918C159.57571,411.40186,157.46994,414.0952,156.6868,415.29474C155.93924,416.45795,155.19101,417.54877,155.04758,417.6585C154.86795,417.76862,154.37161,418.74878,153.87625,419.83716C151.7891,424.48108,150.93735,426.07874,149.40524,428.29688C147.37381,431.20636,145.56754,434.98047,143.98483,439.4751C143.17563,441.75873,141.90286,444.66077,141.15671,445.96844C140.41061,447.27606,139.24026,449.56314,138.53201,451.05093C137.78757,452.5391,136.82846,454.2462,136.40097,454.8644C135.61588,455.88333,131.23027,465.71515,131.23674,466.40137C131.23851,466.58197,131.028,467.23425,130.74486,467.8512C129.96745,469.66483,129.42528,473.42697,129.73088,475.15805C129.96233,476.70914,130.03526,476.7808,131.119,476.77042C131.91362,476.7628,132.56657,477.04562,133.18694,477.68997C135.01158,479.62332,138.24742,481.79605,139.62206,481.9996C140.34557,482.10117,141.07072,482.38315,141.21733,482.59854C141.36388,482.81387,142.41301,482.98447,143.53282,482.9738C145.59178,482.95413,145.62761,482.9177,145.90562,481.75906C146.25432,480.45517,149.14262,476.49002,151.71753,473.75613C152.61163,472.80832,153.46576,471.4636,153.67596,470.77512C153.84998,470.0872,154.34814,469.2876,154.74298,469.031C155.7486,468.40717,157.2024,465.5395,158.85703,461.0081C159.56046,459.01456,160.30693,457.743,161.73662,456.13992C162.80919,454.97366,164.02086,453.22812,164.44572,452.3209C164.87016,451.37766,165.97173,449.45255,166.86162,448.07126C168.67726,445.27234,169.77672,443.13055,171.29573,439.5396C171.86131,438.2337,172.71202,436.52777,173.21016,435.72815C174.20604,434.09308,178.98909,428.05072,180.8488,426.08228C183.03023,423.74945,183.31056,422.84363,182.98024,418.51184C182.81569,416.41815,182.46754,414.00116,182.1703,413.13696C181.8734,412.30896,181.519,409.2417,181.38234,406.28082C181.1652,402.4536,180.93059,400.5774,180.45097,399.5344C180.08223,398.743,179.70787,397.37387,179.5548,396.47226C179.402,395.60672,179.14052,394.70615,178.99394,394.49088C178.81163,394.31192,178.47865,393.48422,178.25423,392.69156C177.99379,391.89938,177.73268,391.03488,177.658,390.78268C177.54765,390.567,176.93147,390.3561,176.24522,390.3627C175.19765,390.37265,174.87428,390.55643,174.41331,391.46384 Z M196.52876,464.11655C196.02864,464.69934,195.20818,465.79083,194.71007,466.59045C194.24812,467.38953,193.53532,468.4079,193.14214,468.8451C192.74889,469.28247,192.14235,470.08292,191.75027,470.62857C191.39407,471.17392,190.50037,472.1578,189.81964,472.74228C189.13907,473.36282,187.77856,474.64017,186.77582,475.553C183.37457,478.76437,181.76218,480.15256,180.93558,480.59396C179.85739,481.18216,179.94,482.2651,181.13995,483.08456C182.04886,483.69003,183.09738,483.7883,191.73257,483.92258C202.31871,484.0745,202.46278,484.03708,203.88725,481.89206C204.59972,480.83768,204.70183,480.18637,204.6736,477.2244C204.63359,473.03433,203.9583,470.40372,201.8236,466.26965C200.20387,463.10617,200.20387,463.10617,198.83125,463.1193C197.7837,463.12924,197.2082,463.38754,196.52876,464.11655 Z"/> </g> </g> </svg>