<?xml version="1.0" encoding="utf-8"?>
<svg version="1.1" id="Layer_1" xmlns="http://www.w3.org/2000/svg" xmlns:xlink="http://www.w3.org/1999/xlink" x="0px" y="0px"
	 viewBox="0 0 1462.123 1655.852" enable-background="new 0 0 1462.123 1655.852" xml:space="preserve">
<path d="M1069.043,29.123c3.394-1.774-6.286-1.037,136.846-1.189c4.249-0.143-9.373-7.412,168.531,101.527
	c3.125,1.705-1.976-14.007,55.675,206.574c0.908,3.128,5.017-9.07-61.564,161.181c-1.188,3.189,8.566-4.156-138.943,96.265
	c-2.642,2.135-178.291-6.525-180.572-6.788c-4.32-2.306-75.094-51.083-128.531-87.079c-44.423,56.625-17.294,26.095-54.701,64.167
	c-3.015,3.305-6.751,6.021-9.232,9.757c-1.773,8.657-4.889,46.024-7.594,65.197c-22.928,68.921-13.616,16.491-16.648,121.705
	c-17.129,30.641-33.438,53.763-33.156,59.073c0.094,34.982-0.084,69.972,0.094,104.954c1.095,3.716,25.334,41.671,27.388,44.897
	c2.343,3.575-0.211-8.34,30.45,166.471c0.431,4.714,89.952,86.467,95.937,94.046c1.454,5.531-0.128-1.441,22.304,122.501
	c1.126,3.252,1.807,0.237-33.128,60.309c-2.802,4.786-5.08,4.216-39.438,28.68c7.781,13.024,15.749,25.946,23.539,38.961
	c4.391,0.805,8.905,0.665,13.305,1.47c6.832,5.086,35.288,82.765,35.89,84.954c-3.212,8.68-7.828,16.817-11.433,25.365
	c3.427,6.227,7.884,11.817,11.592,17.893c-2.444,4.588-5.346,8.914-8.268,13.212c-20.136,0.434-224.273,4.479-243.681,4.7
	c-0.169-7.125,0.215-14.251-0.225-21.358c-18.838-0.229-227.79-3.16-246.622-3.633c-1.994-4.878-3.979-9.757-5.843-14.672
	c7.835-11.441,2.222-2.787,9.008-28.09c19.401-5.281,38.82-10.515,58.24-15.74c10.455-3.095-3.36,7.121,87.107-67.941
	c-7.809-11.339-16.395-22.126-24.429-33.296c-17.179-23.508,62.419,41.446-178.466-152.997c-6.148-4.925-2.378-10.156-13.53-19.232
	c-52.083-41.546-49.343-39.305-49.719-41.854c-19.76-90.515-13.958-59.115-15-84.635c0.667-9.633-6.485,0.215,33.202-44.729
	c1.423-2.05,4.101-1.788,6.283-2.125c89.752-8.429,31.56-10.359,155.254,11.03c-69.426-130.646-60.392-89.087-60.253-143.016
	c-0.126-9.561,1.804-3.27-10.974-37.154c-1.802-4.512-0.781-56.969-0.693-59.317c7.622-33.465,15.749-66.817,23.455-100.263
	c-8.305-5.571-16.995-10.562-25.337-16.086c0.44-2.406,0.955-4.785,1.479-7.172c-11.409-1.761-13.021-0.958-14.279-3.062
	c-12.252-17.103,1.399-10.103-38.399-20.721c0.084-11.451,0.852-22.884,1.049-34.326c-2.285-2.228-4.738-4.26-7.116-6.376
	c-3.624-2.846-2.875-8.418-6.442-11.292c-27.994-23.292-27.636-22.463-27.566-24.523c-1.395-14.466-2.64-28.951-3.998-43.418
	c-9.204-3.427-18.764-5.833-27.978-9.232c-2.228-6.358-4.27-12.79-6.367-19.195c-3.775-0.529,4.682-0.132-119.458-3.193
	c-3.448,0.129,3.744,3.99-102.042-63.437c-12.939-9.384,3.406,15.099-73.559-116.452c-1.733-2.802-0.747,2.734-8.624-88.596
	c-0.501-5.604-3.078,6.093,37.332-137.763c3.739-11.845-9.959,4.777,87.585-92.042c6.949-6.601-7.257-1.597,99.767-30.3
	c13.838-3.605-4.205-2.395,101.901-1.423c9.928,0.295-6.483-6.745,112.744,52.285c10.769,5.733-1.509-7.856,67.837,81.986
	c2.71,3.516,0.48-0.515,30.684,104.205c96.208,0.234,192.417-0.019,288.626,0.131c39.609-132.485,8.378-84.681,69.532-159.627
	c8.942-10.712,17.406-21.845,26.611-32.313C965.546,80.931,1028.694,49.572,1069.043,29.123 M572.073,317.645
	c-9.939,86.239-0.885,49.706-34.953,135.872c56.984,47.5,27.472,16.696,55.778,51.049c8.596,11.765,3.633-3.757,34.654,80.918
	c-0.009,8.052-2.912,15.974-2.921,24.036c6.124,8.792,12.893,17.154,19.176,25.843c5.068,6.531-0.865,3.234,38.652,18.596
	c2.144-1.364,25.75-18.271,28.642-21.124c28.299-82.939,4.499-46.155,69.673-110.984c8.549-12.477,46.328-78.479,56.48-95.235
	c10.075-8.689,21.096-16.274,31.395-24.71c-15.962-55.404-10.985-22.272-11.891-84.336
	C849.857,317.509,636.153,317.376,572.073,317.645 M808.339,1453.056c-1.873,2.013-2.968,5.159-5.524,6.32
	c-52.564,5.222-32.277,1.96-71.274,0.187c3.09,3.979,6.498,7.697,9.888,11.423c1.526-1.91,3.052-3.811,4.625-5.665
	c3.905,0.122,7.809,0.384,11.695,0.824c32.621,53.943,26.511,43.595,27.641,65.094c0.075,4.307,2.069,8.24,3.727,12.135
	c1.672-2.479,24.338-40.133,30.216-50.74C818.829,1489.656,810.157,1458.18,808.339,1453.056z"/>
</svg>
