<?xml version="1.0" encoding="utf-8"?>
<svg version="1.1" id="Layer_1" xmlns="http://www.w3.org/2000/svg" xmlns:xlink="http://www.w3.org/1999/xlink" x="0px" y="0px"
	 viewBox="0 0 5000 4755.179" enable-background="new 0 0 5000 4755.179" xml:space="preserve">
<path d="M4985.498,4621.267c-6.764-8.953-17.176-13.687-25.346-21.02c-33.388-28.539-16.965-43.327-81.732-80.112
	c-21.754-12.134-72.121-73.704-83.423-89.297c-38.241-45.9-28.972-31.344-88.425-69.914c-11.266-7.476-24.063-11.907-36.505-16.855
	c-14.986-6.123-24.456-20.896-40.154-25.612c-63.173-20.68-41.508-10.884-71.961-24.207
	c-65.652-29.988-121.457-68.623-146.537-83.228c-3.685-2.189-6.443-5.446-8.703-8.934c-9.209-14.214-21.485-27.52-35.675-36.903
	c-14.937-9.878-30.744-16.666-44.318-28.968c-15.363-13.925-31.78-24.508-48.039-37.146c-8.912-6.927-17.832-13.845-26.789-20.714
	c-30.441-23.344-61.25-46.206-92.262-68.784c-6.878-5.008-13.768-10.002-20.666-14.983c-71.395-54.203-73.035-50.213-88.3-61.228
	c-26.391-20.39-67.088-36.332-87.09-57.988c8.135-2.901,17.834-2.385,24.42-8.775c8.971-7.155,10.661-20.344,6.781-30.578
	c-4.094-7.707-13.065-10.573-18.439-16.98c-2.35-5.001-2.243-10.768-3.631-16.019c-2.154-11.48-8.348-21.572-11.908-32.59
	c-3.043-8.97-6.158-18.03-11.444-25.95c-13.901-20.731-18.168-52.33-45.405-102.308c-4.61-7.814-3.702-17.532-8.739-25.096
	c-4.468-7.191-8.811-14.595-10.982-22.801c-3.009-18.314-15.29-33.284-20.309-50.993c-5.09-14.631-5.91-30.756-14.613-43.999
	c-11.231-25.008-26.093-48.502-33.639-75.04c-38.326-123.179-35.118-254.034-9.025-386.911c0.071-4.77,4.361-6.247,8.276-7.12
	c0.819-3.987,1.869-7.956,1.798-12.014c-0.552-15.734,5.856-30.649,6.354-46.277c3.316-67.58,79.463-237.021,114.731-340.776
	c59.938-163.181,9.255-66.398,73.243-211.735c33.761-75.217,66.302-118.08,63.524-262.657
	c-0.224-37.131,5.295-100.112-35.366-134.239c-117.089-96.717-132.399-96.582-459.85,2.385
	c-151.903,44.247-322.816,106.749-518.889,211.005c-14.755,6.924-28.834,15.966-44.995,19.294
	c-5.696,1.192-11.463,3.097-15.734,7.244c-7.882,7.374-2.956,5.681-68.775,26.146c-8.828,3.133-16.642-5.909-25.613-3.257
	c-2.759,3.667-3.667,8.294-5.749,12.317c-11.356,1.726-23.299,3.115-34.458-0.356c-7.102-1.94-12.121,5.589-18.778,6.586
	c-3.88-1.94-6.924-5.696-11.284-6.372c-6.853-0.107-12.37,5.82-19.347,4.823c-11.302-0.854-22.623,0.356-33.907,0.071
	c-4.93-0.267-9.149-3.667-14.114-3.399c-34.658,1.919-80.013-18.108-118.416-34.174c-4.361-1.424-9.006-0.961-13.474-0.908
	c-18.879,1.315-72.807-20.072-112.097-23.156c-20.896-2.954-42.147,0.854-62.99-2.688c-8.081-1.317-16.268-1.014-24.26,0.623
	c-24.313,2.456-48.555-2.296-72.744-4.076c-16.019-2.847-30.756-10.964-47.006-12.94c-5.429-0.605-10.359,2.332-15.539,3.346
	c-4.215-0.268-185.781-50.418-192.512-51.937c-37.084-10.529-148.743-31.098-173.966-34.44
	c-34.872-6.349-135.196-7.855-136.232-7.885c-0.765-2.101-1.513-4.147-2.243-6.159c-12.815-1.904-24.634-8.276-37.698-8.579
	c-36.125-1.471-30.017-6.875-51.385-9.896c-4.111,1.317-7.475,4.378-11.694,5.393c-3.465,0.561-26.288-1.213-31.842-4.219
	c-29.789-14.749-51.443,0.95-80.682-2.99c-7.778-1.442-15.805-2.777-23.619-1.05c-28.692,7.031-58.611,1.157-87.481,6.55
	c-15.432,2.047-31.753,4.182-46.526-2.118c-8.615,1.762-16.855-1.335-25.096-3.31c-25.31-4.307-51.029-6.176-76.179-11.48
	c-15.165-2.457-29.742-7.529-44.746-10.662c-18.76-4.877-39.531-8.241-53.557-22.907c-19.515-22.11-18.996-9.097-16.82-96.007
	c0.009-1,10.93-240.069-3.506-318.297c-73.613-563.323,3.547,29.796-40.065-341.025c-2.634-30.044,2.029-60.747-5.34-90.311
	c-8.143-38.238-19.783-52.485-41.507-167.362c-35.432-160.019-59.346-200.09-77.692-270.311
	C986.798,573.343,952.9,593.098,948.796,435.18c-3.915-97.862-13.078-103.558-16.731-143.708
	c-3.239-20.042-7.547-40.03-14.364-59.199c-1.459-5.108-0.196-10.483-0.427-15.716c0.125-10.698-2.972-21.181-2.456-31.914
	c0.926-15.627-3.898-30.81-4.948-46.33c-0.854-14.204-3.506-28.265-6.995-42.041c-5.443-22.362-39.121-16.844-38.054,6.336
	c0.071,12.192-0.926,24.545,1.798,36.559c1.655,12.726,0.979,25.612,1.602,38.41c0.605,10.911-4.361,20.931-7.903,30.935
	c-37.698-18.685-24.138-23.772-47.986-76.767c-4.503-10.27-12.086-18.671-18.546-27.695c-15.129-21.715-27.197-45.565-44.817-65.518
	c-15.486-22.992-42.955-10.581-39.495,3.382c3.257,11.339,45.47,82.093,47.701,91.112c3.026,10.466,3.738,22.035,10.412,31.059
	c4.023,7.511,6.888,15.591,11.516,22.782c-16.986,0.533-21.727-52.857-44.337-80.717C689.279,53.52,686.743-8.396,654.688,0.942
	c-14.737,2.937-21.857,22.035-15.129,34.743c4.681,8.899,6.942,18.796,11.427,27.766c4.863,11.153,24.972,48.399,33.604,73.331
	c3.552,10.451,36.16,58.389,37.734,68.615c-2.652,3.079-6.924,0.481-10.199-0.036c-13.081-8.208-26.526-47.639-55.942-83.067
	c-30.25-39.344-44.072-96.78-70.928-74.488c-23.009,20.331,0.437,46.181,26.698,107.914c13.064,28.104,54.723,81.634,62.296,111.901
	c13.472,65.095,3.411-0.656,17.603,86.235c2.456,8.882-4.966,15.93-9.843,22.391c-6.443,1.886-12.744-2.314-18.404-4.912
	c-13.848-6.586-19.347-22.16-30.845-31.522c-10.519-8.081-21.946-16.695-35.74-17.318c-15.77-3.507-32.518,0.961-45.547,10.127
	c-8.134,6.069-12.014,20.308-2.741,27.125c13.581,8.49,28.549,14.844,41.436,24.456c13.314,12.174,28.247,22.818,39.264,37.271
	c42.924,61.892,40.448,44.471,75.592,64.948c5.82,3.097,11.979,5.571,17.443,9.291c11.551,7.44,21.127,18.03,34.387,22.622
	c10.644,3.702,18.582,12.085,25.702,20.469c6.639,8.045,7.582,18.849,9.451,28.71c4.043,32.056,19.616,79.338,21.554,99.922
	c4.283,56.09,30.526,105.617,42.557,232.648c0,0.001,5.322,86.858,5.322,86.858c14.03,76.056-7.747,134.701,53.396,302.135
	c12.04,42.271,23.303,33.995,21.359,169.943c-0.162,92.205,11.501,164.488,11.48,233.147
	c1.639,104.524-57.216,220.601-47.772,339.922c0.356,32.181,7.458,63.862,7.6,96.06c2.316,19.702,0.773,37.791-0.983,57.718
	c-0.314,3.558-0.627,7.118-0.783,10.687c-1.079,24.708,11.253,44.929,14.154,68.824c7.698,63.389-10.623,48.295-8.935,186.799
	c2.83,13.634,5.98,28.229,1.05,41.809c-7.867-5.5-8.009-16.019-11.997-23.957c-6.123-12.851-7.974-27.019-9.166-41.044
	c-1.429-22.448-23.855-53.888-54.447-47.38c-12.37,2.99-24.616,6.479-37.039,9.22c-8.579,2.082-16.589,6.817-25.63,6.585
	c-5.82,0.285-11.498-1.228-17.283-1.317c-5.09,1.122-9.522,4.432-14.791,4.841c-28.368,1.915-32.799-2.578-46.01-5.909
	c-4.877-1.246-9.522-3.24-13.865-5.749c-8.098-4.841-17.478-6.604-26.431-9.167c-3.047-1.548-28.521-19.826-37.751-11.018
	c-27.892,25.3-29.281,37.879-42.913,47.896c-10.519,7.671-21.608,15.076-33.942,19.455c-29.293-11.738-20.761-25.194-38.285-22.979
	c-2.385,7.458-2.545,15.307-0.925,22.961c-30.658-2.569-16.979-2.457-38.214,2.652c-1.021,0.212-72.238,8.417-108.502,30.347
	c-37.663,19.237-37.183,35.68-53.094,51.937c-8.405,8.088-13.039,30.787-21.074,28.87c-34.912-4.966-46.477,1.596-59.626,22.071
	c-5.998,9.825-14.257,18.012-20.041,27.997c-18.35,30.067-46.22,48.595-44.995,69.042c0.214,8.01-3.933,15.236-4.414,23.156
	c-11.553,117.291-14.873,48.654,1.922,126.87c3.4,14.506,13.296,26.093,19.703,39.264c3.417,6.354,2.421,13.776,2.581,20.753
	c-0.424,25.834,12.253,66.392,19.846,79.881c8.597,13.189,25.541,18.422,32.821,32.625c3.15,6.888,3.773,14.684,7.137,21.519
	c4.823,8.579,14.987,12.726,18.938,21.982c2.777,6.336,6.728,11.979,10.679,17.621c4.491,32.53-16.274,46.221,1.032,73.901
	c7.796,14.79,26.587,12.026,32.946,37.128c-1.887,7.173-8.49,13.42-6.621,21.323c11.683,31.569,34.601,23.583,52.969,49.143
	c5.126,7.992,14.72,12.014,24.064,11.106c11.267-1.104,22.569,1.139,33.8-0.356c7.244-0.641,12.53-6.906,19.792-7.458
	c11.391-0.908,23.334,2.403,34.298-1.887c4.556-2.171,10.448-4.289,11.534-9.878c2.421-13.954,2.118-28.585,7.885-41.774
	c3.275-7.315,2.011-15.378,1.691-23.067c24.396-16.872,14.888-15.889,64.841-19.312c30.26-1.744,72.143,16.243,100.314,16.161
	c6.728-0.089,13.314-1.691,19.97-2.474c18.404-1.246,37.805-6.568,51.225-19.917c26.137-24.726,80.771-39.924,96.915-63.292
	c5.678-8.543,8.187-18.689,13.136-27.624c0,0,22.967-35.709,26.271-41.418c11.071-17.248,19.134-36.203,30.507-53.272
	c10.092-14.969,11.552-33.284,15.307-50.424c6.835,3.061,12.744,7.707,19.009,11.729c6.105,3.613,9.362,10.804,9.184,17.763
	c0,13.812,0.783,27.766-1.673,41.453c-0.999,8.842-3.057,9.573,11.961,26.485c3.506,3.791,8.917,2.207,13.242,1.121
	c0.427-3.898,0.409-7.831,1.21-11.623c4.076-11.017,12.673-20.344,13.848-32.394c4.521-25.011-2.766-23.792-8.045-43.429
	c-5.464-13.937-7.244-29.689-17.265-41.436c9.118,2.852,38.978,18.329,49.338,29.03c11.75,14.893,2.084,21.245,22.996,51.99
	c5.233,7.12,13.883,11.071,18.564,18.618c4.521,13.171-4.841,25.061-10.893,35.971c-10.644,14.453-17.3,31.166-25.969,46.758
	c-5.642,14.88-5.998,31.13-10.946,46.241c-2.534,15.52-17.292,56.51-19.116,66.265c-0.7,2.549-4.941,107.428-4.966,108.431
	c-0.328,6.85-15.29,125.895-17.211,136.428c-10.246,48.876-23.254,97.315-63.844,206.626
	c-65.699,175.569-29.767,186.549-89.065,274.102c-37.713,69.934-49.6,31.677-147.837,361.245
	c-42.236,124.149-36.219,93.826-65.678,167.559c-4.058,11.249-7.191,22.872-12.424,33.711c-6.372,13.616-8.277,29.172-17.016,41.685
	c-19.939,28.371-26.214,71.295-42.806,85.577c-18.314,15.058-95.025,19.96-96.025,20.131c-32.167,7.426-38.843-2.632-83.316,5.268
	c-14.506,3.934-30.294,0.961-44.248,7.209c-7.476,2.581-14.008,8.347-22.302,8.134c-11.338,0.285-22.426,3.293-33.818,2.919
	c-11.854-0.231-23.156,3.862-34.939,4.521c-13.954,1.905-28.282,3.097-41.311,8.864c-31.592,14.249-42.592,2.597-58.362,5.642
	c-6.781,2.171-9.718,9.273-14.577,13.865c-8.579,3.952-18.582,2.136-27.232,6.052c-9.042,3.737-18.76,2.901-28.3,2.812
	c-8.348,0.071-16.98,6.657-16.713,15.539c1.608,20.91-6.482,27.7,10.768,34.601c10.519,3.399,21.786,1.513,32.643,2.064
	c9.95-0.285,20.54,1.923,29.902-2.527c4.165-2.065,8.953-1.887,13.331-0.588c13.207,3.809,26.983,0.463,40.457,1.478
	c40.704,3.194,44.752-1.744,65.233-5.464c-3.222,6.87-8.009,14.702-4.485,22.426c16.501,31.409,37.858,21.833,67.76,19.526
	c11.516-1.513,23.566-1.584,34.405-6.23c21.59-10.199,46.295-9.238,68.543-17.283c8.098-3.097,16.82-2.42,25.31-2.83
	c10.484-1.211,20.914-4.166,31.557-2.866c78.405,14.768,171.192-12.868,177.864-17.443c13.794-10.252,25.203-24.277,30.222-40.901
	c3.097-13.242,10.27-24.972,16.233-37.039c4.378-9.469,13.42-15.432,18.368-24.473c14.873-27.176,40.542-48.491,57.147-75.136
	c18.502-29.689,38.915-57.947,58.27-87.335c36.699-55.723,67.938-114.697,95.156-175.577c31.028-69.4,57.513-140.726,85.617-211.331
	c16.5-48.978,18.617-39.365,33.942-67.368c2.67-4.859,2.438-10.573,4.129-15.717c2.172-6.799,5.589-13.082,8.472-19.561
	c19.391-51.673,32.369-43.864,74.364-151.664c34.68-82.762,134.936-262.806,177.49-408.376
	c21.611-68.482,26.589-144.403,68.846-190.964c43.247-49.121,178.959-119.611,196.624-144.883c3.204-4.521,7.315-8.437,12.726-9.985
	c1.744,2.385,2.688,5.909,5.714,7.137c22.033,10.416,44.923-12.403,49.587-14.684c7.44-2.457,15.539-1.371,22.996-3.774
	c59.494-18.628,40.187-13.609,55.372-19.329c8.241-2.029,16.891-1.567,25.203-3.364c13.331-2.741,27.019-2.082,40.546-2.776
	c13.296-2.385,25.755-8.882,39.46-9.184c9.22-0.748,19.258,0.053,27.41-5.162c13.474-8.027,25.933-18.671,41.631-22.142
	c18.386-3.702,36.737-9.042,55.693-8.437c12.965,0.362,54.127-8.322,62.385-12.513c20.29-10.105,46.305-3.706,64.859,5.945
	c16.712,8.284,8.435,17.583,57.633,14.488c55.743-6.136,44.684-8.339,51.474-2.563c35.749,36.071,20.122,18.309,43.429,33.141
	c15.645,9.558,33.141,17.016,45.565,30.988c6.14,4.824,8.081,12.922,13.936,18.013c22.16,20.577,11.901,15.153,42.913,33.818
	c12.637,8.721,24.188,19.418,38.534,25.381c12.014,4.325,14.328,18.796,23.049,26.805c33.221,28.07,24.015,9.291,42.913,26.52
	c12.05,7.938,25.808,13.135,39.958,15.894c2.742,15.374,1.343,19.903,22.142,25.399c6.212,1.549,12.353-1.246,18.582-1.21
	c8.579,4.058,13.865,12.37,21.074,18.262c22.925,22.547,76.299,52.914,83.53,64.165c1.641,27.54,25.267,22.968,39.905,23.85
	c3.24-0.374,4.183,3.275,5.767,5.393c11.581,19.919,44.357,40.662,69.469,60.498c8.01,6.603,18.689,8.063,27.499,13.224
	c7.689,6.732-0.459,15.742,47.042,26.147c4.966,4.005,8.757,10.661,15.966,10.715c11.089,0.516,19.596,8.383,28.247,14.435
	c23.692,18.788,80.009,48.653,89.6,52.791c19.134,8.277,33.782,23.726,52.115,33.373c131.132,71.638-2.274,11.573,238.647,127.956
	c14.025,6.763,26.218,16.624,39.781,24.224c67.996,39.539-0.119-23.615,238.415,142.462c14.75,11.649,46.8,41.792,52.311,59.857
	c8.606,21.967,18.934,14.696,27.321,24.331c12.121,13.755,40.121,21.708,49.997,33.693c6.657,5.4,50.483,46.933,52.773,48.716
	c19.874,15.474,42.538,50.109,60.48,64.094c21.55,16.403,37.802,45.539,75.859,73.562c6.622,4.931,14.844,7.209,21.216,12.566
	c43.518,35.433,70.434,44.435,96.025,58.95c70.305,37.689,68.76,36.747,97.306,46.846c16.873,5.162,31.878,14.72,48.181,21.287
	c15.895,6.426,29.903,16.411,45.084,24.243c65.342,30.699,25.937,7.638,96.185,42.592c12.404,5.224,48.208,31.319,95.063,42.005
	c6.675,1.459,12.424,5.304,18.404,8.543c5.5,3.239,12.14,1.851,18.244,2.385c9.398-0.195,17.55,5.001,26.022,8.348
	c45.742,18.162,45.855,22.9,63.043,31.095c124.414,56.119,77.51,59.752,173.806,107.558c8.544,4.059,15.147,11.053,23.192,15.948
	c7.688,4.628,13.402,11.676,18.546,18.938c3.311,5.001,8.74,8.152,12.067,13.189c0.445,7.138-3.862,13.634-3.755,20.825
	c-0.107,9.469,2.349,18.778,2.101,28.318c4.93,4.308,10.732,7.725,17.478,8.081c4.846,12.597,4.15,15.703,27.25,23.032
	c8.027,2.154,15.769,5.357,23.957,7.031c8.098,2.207,17.016,1.673,24.385,6.354c10.608,6.194,23.351,9.504,35.472,5.945
	c4.931-1.513,6.657-6.906,9.434-10.679c10.758,8.679,3.568,21.142,29.457,23.797c9.042,0.16,19.419,1.993,26.912-4.468
	c6.247,4.236,13.135,8.241,21.002,8.08c9.309,0,21.127,0.89,27.214-7.742c3.115-6.71-0.516-13.83-1.584-20.522
	c-0.445-5.055,0.25-10.092,0.321-15.093c2.154,0.107,4.361,0.267,6.639,0.499c0,11.925,3.257,23.494,9.095,33.889
	c6.154,8.205,32.801,7.169,41.65,5.642c5.25-0.818,8.419-5.553,12.779-8.116c20.191,7.73,52.013-6.188,58.932-27.214
	C5002.584,4643.605,4993.365,4631.448,4985.498,4621.267z M3636.578,2475.708c-1.192,7.494-0.73,15.218-2.831,22.587
	c-10.146,32.94-18.305,165.31-17.567,187.172c-3.705,53.611-11.283,100.115-18.6,139.721c-3.631,32.501-4.841,65.518-12.869,97.378
	c-9.427,37.414-1.288,76.129-8.062,113.2c-4.719,25.824-2.672,76.915-3.4,101.809c-1.139,11.836-1.656,23.726-1.656,35.615
	c-3.941,46.535-17.292,74.869-26.947,81.287c-35.388,24.591-22.693,13.436-45.013,36.986c-5.126,4.983-8.74,11.445-14.845,15.396
	c-31.276,20.629-30.584,33.595-38.054,43.874c-5.749,8.116-7.279,18.244-7.92,27.944c-9.291-2.759-11.356-13.296-17.995-19.187
	c-39.014-44.418-174.65-141.159-234.873-204.776c-10.323-9.291-18.511-20.611-28.549-30.151
	c-73.445-76.852-116.403-158.419-154.298-248.115c-1.691-3.969-3.542-9.914,1.424-12.317c7.386-3.577,12.869-9.718,18.493-15.503
	c39.109-37.165,144.119-82.118,160.296-96.007c8.928-7.526,110.48-57.499,113.663-58.985
	c36.913-20.846,67.365-21.489,117.045-60.943c33.084-27.358,107.262-76.835,146.36-115.177
	c26.503-20.504,51.172-43.642,80.219-60.676C3639.194,2463.107,3637.415,2469.318,3636.578,2475.708z"/>
</svg>
