<?xml version='1.0' encoding='utf-8'?>
<svg xmlns="http://www.w3.org/2000/svg" version="1.1" id="Layer_1" x="0px" y="0px" viewBox="0 0 2650.556 842.598" enable-background="new 0 0 2650.556 842.598"> <g> <path d="M1101.647,310.765c-3.158,1.758-5.497,1.472-7.796-0.6c-1.617-1.457-3.943-0.88-5.985-0.901 c-13.645-0.142-7.518-4.487-16.682-3.829c-8.967,0.643-6.148-3.796-13.601-5.407c-176.442-38.158-213.054-30.066-276.085-40.968 c-47.975-8.297-23.744-1.476-88.418,3.289c-118.783,8.751-115.142-19.199-229.795-29.952c-12.206-1.145-16.318,1.034-18.394-5.001 c-1.713-4.981-3.329-3.399-21.091-6.012c-13.826-2.034-68.077-16.09-73.72-7.254c-7.547,11.819-16.702,4.056-18.014,10.7 c-0.431,2.186-1.971,3.767-3.505,4.952c-2.994,2.313-5.216,5.442-8.439,7.491c-6.368,4.048-6.684,10.497-16.898,15.717 c-8.248,4.215-2.406,13.611-8.463,24.252c-10.549,18.533-49.291-2.763-63.747-16.924c-1.974-1.934-2.749-4.834-4.74-6.352 c-28.15-21.469-62.991-61.849-89.02-70.095c-10.632-3.368-11.564-9.241-19.549-12.104c-9.418-3.377-9.739-10.815-17.033-12.238 c-3.332-0.65-49.361-40.659-54.404-63.069c-1.651-7.338-0.811-19.345-0.469-19.738c17.591-20.233,21.694-18.603,88.631,8.486 c8.069,3.265,16.34,6.028,24.218,9.767c1.326,0.63,2.735,0.924,4.161,0.47c4.967-1.579,2.355,1.332,22.697,3.81 c18.967,2.311,42.764-1.175,48.224,4.488c6.53,6.774,17.201-10.377,25.99-6.802c2.73,1.11,2.001,0.061,21.046-2.618 c9.65-1.358,10.497,9.19,11.379,13.822c1.134,5.955,1.064,5.639,28.697,10.146c124.327,20.276-19.277,18.604,358.988,26.864 c33.241,0.726,67.205-11.276,82.746-11.307c2.597-0.005,3.533-3.453,6.246-2.851c7.395,1.641,7.049-0.94,17.346-1.127 c0.78-0.014,1.727-0.046,2.306-0.469c5.397-3.941,38.133,1.976,48.073,0.235c20.98-3.673,32.847-3.749,87.646-5.773 c172.019-6.352,317.45,41.851,335.555,43.174c1,0.073,11.985,0.703,13.225,0.021c3.185-1.752,1.764,0.928,31.847,3.66 c7.139,0.648,13.777-1.222,20.586-2.301c95.644-15.156,242.694-7.772,338.906-9.598c61.343-1.164,79.129-13.423,141.352-13.442 c5.715-0.002,49.412-10.873,72.616-14.502c89.283-13.964,135.557,12.6,252.84,9.908c2.816-0.065,57.971,4.459,84.222-1.901 c15.286-3.704,16.023,0.128,16.975-4.609c2.458-12.226,14.523-14.233,18.315-15.575c1.038-0.367,2.025-0.302,2.421-1.746 c1.338-4.872,4.419-8.48,8.11-11.917c17.894-16.668,12.596-19.044,23.208-25.801c11.561-7.361,2.491-17.042,14.045-33.817 c7.355-10.681,34.079-14.577,59.356,2.726c6.194,4.24,2.188,5.384,6.52,7.037c14.587,5.566,46.078,33.656,73.006,52.774 c6.058,4.301,12.973,7.291,18.585,12.265c0.301,0.267,1.046,0.484,1.274,0.312c3.313-2.5,7.288,1.129,10.001,0.664 c8.529-1.462,21.424,4.661,21.424,4.661c4.906-0.941,8.857,1.798,13.172,3.174c2.427,0.774,3.583,3.139,5.571,4.181 c1.955,1.024,4.53-0.252,6.805,1.068c4.077,2.365,8.684,3.862,11.598,7.965c0.717,1.009,1.966,1.53,3.233,1.891 c15.338,4.367,15.94,14.162,21.726,15.831c8.403,2.424,30.064,22.92,44.227,49.368c4.91,9.169,1.349,5.734,3.617,9.999 c2.608,4.902,4.475,10.116,6.236,15.366c0.806,2.403,0.819,4.994-1.125,6.647c-19.216,16.343-9.548,24.273-99.276,0.439 c-5.055-1.343-3.564-0.549-23.953-2.407c-5.64-0.514-11.312-1.625-16.778,0.991c-0.885,0.424-1.986,0.494-2.726-0.166 c-2.041-1.82-4.46-1.316-6.805-1.33c-3.958-0.024-7.872-0.984-11.719-1.194c-1-0.055-66.454-2.469-69.234,0.928 c-7.628,9.322-13.809,3.072-19.836,5.54c-1.292,0.529-8.207,1.39-7.891-1.358c0.267-2.319-1.152-2.25-2.633-2.069 c-2.957,0.36-5.958,0.509-8.688,1.961c-2.651,1.41-12.577,4.362-15.438-3.639c-3.165-8.851-2.195-9.713-5.036-9.683 c-9.359,0.097-10.188,0.009-11.507-1.396c-1.409-1.5-129.4-2.378-165.411,10.333c-5.01,1.769-51.368,7.766-57.041,8.557 c-97.913,13.648-135.688,22.24-217.933,20.295c-32.337-0.765-37.215,1.592-48.425,6.155c-29.632,12.06-32.135,12.863-45.886,10.851 c-8.634-1.263-16.617-0.443-24.339,3.582c-2.09,1.09-4.423,2.138-6.82,1.452c-5.604-1.605-10.302-0.812-40.914,6.262 c-5.969,1.379-12.566-1.21-30.627,5.457c-41.237,15.224-126.056,45.335-170.916,54.254c-7.283,1.448,6.95,6.637,6.141,17.705 c-0.209,2.865,1.6,5.327,3.095,7.275c3.887,5.066,6.39,10.927,10.052,16.092c5.01,7.067,7.158,2.548,7.689,7.496 c1.318,12.279,14.733,23.677,18.599,32.629c2.254,5.219,13.267,5.389,10.367,14.352c-0.392,1.212,0.471,1.698,1.277,2.22 c5.867,3.8,4.429,13.632,16.437,19.453c1.364,0.661,3.054,1.61,3.581,2.854c2.569,6.072,8.945,3.127,11.672,6.917 c5.017,6.974,71.608,49.415,79.206,121.299c2.335,22.093-1.852,24.694,4.929,21.932c66.601-27.123,54.635-16.586,84.664-19.533 c12.89-1.264,12.681-7.123,20.304-2.419c2.571,1.586,5.255,2.118,8.157,1.973c11.221-0.56,21.99,1.854,32.691,4.833 c8.836,2.46,19.874-0.959,25.77,3.268c4.483,3.213,9.566-1.283,14.591,6.275c1.873,2.817,10.774,2.945,12.672,2.773 c9.191-0.829,42.37,21.78,45.684,28.195c3.412,6.606,8.677,6.225,9.342,12.709c0.138,1.34,0.837,2.359,1.75,3.286 c0.555,0.564,1.536,1.198,1.512,1.766c-0.283,6.736,11.345,6.67,10.546,20.351c-0.158,2.713,0.293,5.004,2.017,7.061 c6.458,7.706-1.519,4.767,19.29,20.086c1.156,0.851,2.836,1.613,2.929,2.971c0.363,5.306,7.632,8.367,7.58,11.473 c-0.086,5.109,2.099,9.905,2.034,15.026c-0.023,1.778,0.938,3.37,1.941,4.79c4.584,6.491-0.474,9.976,4.02,15.183 c3.98,4.612,2.178,9.41,0.677,14.215c-0.422,1.349-1.413,2.092-2.906,1.885c-3.396-0.471-1.656,2.004-12.022,8.942 c-7.638,5.113-15.89,4.121-20.26,8.593c-10.911,11.164-20.599,6.894-102.415,5.352c-6.954-0.131-8.617-1.969-19.309-1.974 c-47.591-0.021-43.698,0.318-52.737-0.934c-7.809-1.082-15.545-2.78-23.48-2.925c-1.875-0.034-3.735-0.616-5.611-0.884 c-29.607-4.233-33.038,0.391-42.791-3.757c-12.629-5.372-13.264,2.917-27.247-3.335c-20.082-8.979-90.275,3.006-118.509,3.337 c-6.121,0.072-9.85,7.868-26.095,7.55c-10.894-0.213-17.293,1.886-24.551,1.891c-123.683,0.083-321.585-13.41-323.766-16.791 c-2.911-4.514-7.873-6.299-11.991-9.093c-20.794-14.106-15.724-27.184,12.915-98.707c19.087-47.668,45.132-94.598,64.899-136.604 c7.92-16.831,5.292-20.755,10.312-19.585c7.553,1.76,24.86-58.546,23.913-72.76c-0.107-1.598,0.31-3.161,0.886-4.648 c1.486-3.837,0.87-7.832,0.952-11.776c0.033-1.605-0.814-2.223-2.353-2.254c-33.348-0.667-58.468-38.844-71.414-35.161 c-8.449,2.403-36.628-0.194-65.664-24.89C1119.444,357.243,1102.749,321.184,1101.647,310.765z M1279.727,707.376 c-4.161-19.742,5.52,2.675,41.553-25.059c29.642-22.815,20.906-18.872,42.155-32.145c10.731-6.703,14.722,1.446,14.776-6.085 c0.176-24.665-8.532-29.597-7.344-42.286c0.549-5.863-3.479-15.494-3.898-24.809c-0.353-7.846-3.863-5.605-8.375-17.242 c-7.522-19.4-8.713-24.28-13.578-39.501c-1.96-6.132-6.994-3.123-9.728-13.402c-4.982-18.729-0.364-28.751-11.661-32.464 c-8.454,31.71-13.042,30.776-15.409,44.549c-2.262,13.159-14.968,23.071-11.698,28.081c0,0-28.283,61.308-27.89,68.167 c0.057,0.987-0.619,1.775-1.196,2.532c-3.324,4.357-4.76,9.568-6.654,14.578c-0.443,1.172-0.414,2.053,0.516,2.992 c1.287,1.3,1.189,2.721-0.56,3.386c-5.403,2.054-0.011,6.554-3.414,10.263c-3.063,3.339-2.753,7.918-4.072,11.903 c-0.615,1.855,2.351,2.06,2.083,3.911c-0.352,2.422-3.24,0.378-3.769,3.519c-0.922,5.472-1.217,11.022-1.955,16.503 c-0.378,2.805,3.585,2.552,2.625,4.284c-2.489,4.488-2.037-1.301-2.791,12.096c-0.6,10.676,7.376,1.676,14.766,4.13 C1269.162,706.922,1274.503,705.996,1279.727,707.376z M1315.685,704.781c2.256,0.936,0.61,1.093,34.11-6.432 c0.676-0.152,1.583-0.255,1.69-1.315c-0.961-1.641-2.184-2.677-4.256-1.915C1332.056,700.702,1324.194,697.576,1315.685,704.781z"/> </g> </svg>