<?xml version="1.0" encoding="utf-8"?>
<svg version="1.1" id="Layer_1" xmlns="http://www.w3.org/2000/svg" xmlns:xlink="http://www.w3.org/1999/xlink" x="0px" y="0px"
	 viewBox="0 0 642.29 2032.826" enable-background="new 0 0 642.29 2032.826" xml:space="preserve">
<path d="M436.912,19.954c2.315-1.586,4.948-2.687,7.5-3.847c0.571-0.016,19.764,1.32,20.006,1.37
	c11.453,0.819,19.222,8.512,20.141,10.106c2.061,4.834,6.901,7.543,9.852,11.751c3.653,3.038,5.903,7.392,9.647,10.321
	c5.408,5.573,7.984,8.106,11.282,13.537c13.589,18.836,23.346,24.478,26.394,36.208c0.939,2.574,4.073,4.208,3.599,7.257
	c0.868,14.438-9.562-4.861,25.434,47.814c1.376,1.737,2.957,3.561,5.255,3.971c2.342,0.383,3.502,2.633,5.347,3.841
	c0.804,0.68,1.84,0.135,2.762,0.092c1.753-0.356,3.469,0.324,5.18,0.637c12.94,3.268,8.591,12.263,28.299,34.773
	c1.397,1.608,1.435,3.815,1.689,5.816c1.252,1.322,3.885,0.874,4.845,2.746c3,4.867,1.586,10.855,2.066,16.251
	c1.314,4.361,4.559,1.537-3.14,15.9c-4.526,8.092-1.365,11.484-4.333,22.661c-4.129,7.946-12.917,18.382-12.917,18.382
	c-1.326,4.928-6.403,16.462-7.084,20.454c-0.21,1.284,0.216,2.66-0.372,3.874c-13.732,35.532-13.79,57.619-27.657,95.93
	c-14.308,39.196-11.95,33.273-9.965,39.899c0.727,2.78,5.607,16.284,4.333,26.799c-2.534,16.085-4.326,8.492-6.334,13.58
	c4.425,13.976,2.877,4.036,5.304,23.653c-0.982,5.385-2.8,10.575-4.877,15.63c-9.758,30.048,2.596,28.186-13.208,47.803
	c-1.052,4.829-1.608,9.766-2.622,14.611c-0.642,2.611-1.651,5.136-2.093,7.796c-0.257,6.579,1.595,18.188-11.557,33.57
	c-3.611,3.711-5.097,18.593-6.081,22.477c-2.503,3.858-4.942,7.937-8.454,10.974c-3.69,1.489-7.559,2.574-11.336,3.831
	c-2.215,5.333-3.765,6.928,4.662,32.825c0.689,1.917-0.2,3.754-1.667,11.141c-2.643,10.834-2.992-2.736-5.465,29.642
	c-9.723,67.634-1.225,92.147,0.96,115.914c2.171,12.455-0.33,85.891-0.156,96.275c-0.1,6.306,3.764,37.218,4.689,44.765
	c-0.666,13.328-3.116,4.397,3.092,33.656c0,0-0.075,59.197-0.076,59.198c-0.613,5.162,0.911,65.542-28.8,207.732
	c-24.661,89.344-24.634,166.711-28.353,196.029c-0.203,8.478-0.029,12.867-2.703,15.668c0.535,2.793-1.787,7.027-2.967,15.949
	c-0.189,2.18-1.624,3.96-2.223,6.016c-4.068,34.713-0.811,58.575-1.036,62.489c-0.217,3.274,0.528,5.951,5.298,17.929
	c1.505,3.583,0.173,7.462,0.086,11.168c-0.302,4.694,1.203,9.215,1.856,13.823c1.56,10.908,2.298,20.891,2.298,20.891
	c5.832,33.057-0.303,41.982,3.561,54.175c0.415,0.097,1.241,0.286,1.656,0.383c-0.842,2.185-1.969,4.333-1.883,6.766
	c0.186,5.8-5.372,7.712-6.162,10.386c1.16-0.556,2.212-1.306,3.011-2.304c-0.932,28.543-0.069,9.022-5.617,28.622
	c0.522,4.772-0.545,19.098,3.313,43.843c2.229,20.621-5.316,18.495-5.287,34.412c-1.018,9.867-4.026,13.879-3.739,18.323
	c0.088,1,0.161,56.083,1.02,60.973c-0.14,2.482,0.739,4.899,0.55,7.381c-1.008,1.128-12.563,7.424-17.891,8.185
	c-1.117,0.302-2.045-0.556-3.005-0.95c0.156-0.572,0.318-1.128,0.475-1.651c-9.137-4.124-7.147-6.044-9.89-3.426
	c-4.477,4.284,4.22,51.177,14.551,61.863c1.586,1.656,1.667,4.214,3.275,5.865c1.001,0.916,4.09,5.653,0.529,9.992
	c-2.665,2.363-6.027,4.101-7.888,7.268c-1.041,1.548-1.036,3.696-2.655,4.872c-8.991,6.025-4.926,7.675-35.162,9.598
	c-24.773-0.338-72.241,3.221-63.288-36.829c0.405-1.753-0.065-3.507-0.464-5.185c1.37-1.775,2.423-3.836,2.681-6.08
	c1.505-15.604,9.473-17.618,5.12-47.156c0.216-0.151,0.637-0.453,0.852-0.604c-0.378-0.351-0.745-0.68-1.111-0.982
	c-0.798,0.707-1.273,1.656-1.381,2.735c-3.804,0.167-7.613,0.237-11.417,0.216c0.146-0.491,0.291-0.96,0.442-1.403
	c-0.529-0.286-1.047-0.55-1.559-0.798c0.045-6.347-3.787-8.36,1.495-48.537c0.502-3.653-0.987-7.138-1.619-10.672
	c-0.764-5.341-7.69-10.133-6.037-12.641c9.79-19.953-3.886-55.535-4.111-56.543c0.991-7.454,3.99-8.639,2.547-29.151
	c-0.383-2.493-0.593-5.028-0.205-7.521c4.58-26.811-0.094-102.879,1.397-115.973c11.119-124.204,1.617-85.585,4.597-140.975
	c-1.067-32.281,13.728-129.883,9.695-153.795c-4.514-39.212,13.102-80.918,9.701-111.808c-0.197-1.145-0.643-12.623-1.182-14.4
	c-1.327-5.703-4.856-11.028-4.403-17.049c2.766-6.527,10.286-6.255,9.07-9.582c-3.909-5.284-58.795-21.266-61.577-33.543
	c-7.764-3.083-7.26-7.189-13.289-9.35c-1.953,1.921-3.383,4.435-5.109,6.604c-9.984-1.697-60.414-70.94-65.753-76.582
	c-3.496-3.825-8.811-5.05-12.787-8.233c-12.519-8.731-7.431-1.328-11.508-23.648c-12.213-0.224-13.111,1.6-16.03-0.032
	c0.555-7.197-5.821-17.016-7.489-21.193c-1.009-2.892,0.216-6.377-1.975-8.805c-10.92-15.467-11.967-17.684-14.012-19.855
	c1.298,15.41,0.31,17.518,2.271,21.382c0.333,2.433-0.347,42.481-0.351,43.497c4.996,30.594,2.58,52.991,2.633,53.991
	c4.755,176.217,17.521,99.448,39.974,150.531c2.126,4.208,3.971,8.665,7.16,12.215c1.645,1.522,1.336,9.499,0.944,12.647
	c-0.324,2.347,0.626,4.619,0.491,6.971c-0.313,3.766,1.403,7.235,2.131,10.855c2.049,5.76-1.698,11.256-1.581,30.673
	c-9.711,5.331-15.298-5.855-17.146-16.823c-0.418-3.538,0.642-22.313-3.809-26.022c-0.183,4.219-0.27,8.471,0.394,12.657
	c-0.124,4.235,2.083,8.152,1.683,12.409c0.446,10.192-1.914-0.704,3.69,24.878c0.529,2.687,1.613,5.314,3.415,7.413
	c2.406,2.714,2.482,6.82,5.217,9.307c2.05,1.365,3.102,3.75,5.244,5.028c1.888,1.063,1.851,3.432,2.255,5.304
	c1.229,6.459-3.819,5.712-4.435,7.748c-0.917,2.147-0.804,4.866-2.59,6.577c-1.841,1.86-10.079-1.889-11.929-2.406
	c-2.881-0.718-4.904-3.016-7.37-4.5c-2.369-1.468-3.162-4.349-5.093-6.232c-12.166-3.9-7.818-6.373-18.77-15.76
	c-3.237-2.768-4.322-7.106-6.847-10.402c-30.523-30.523-14.6-60.765-30.268-116.497c-0.602-1.873-0.896-14.456-1.354-16.963
	c-2.539-21.696-26.844-105.467-28.293-174.071c-1.471-23.518,1.172-32.273-3.523-51.995c-0.428-2.302-3.967-29.953-4.176-30.926
	C24.067,794.9,50.986,907.19,25.926,820.776c-0.518-2.557-1.031-5.126-2.066-7.532c-0.361-3.458-1.063-6.906-2.449-10.105
	c-4.157-10.165-6.653-35.973-6.793-36.985c-1.052-5.422,0.788-10.812,0.923-16.235c6.291-24.18-0.689-27.55,47.663-55.891
	c1.084-1.101,1.608-2.649,2.757-3.707c7.655-7.669,11.505-10.625,17.896-18.323c2.369-1.592,5.509-1.629,7.624-3.647
	c1-0.888,19.853-15.723,24.112-20.125c10.092-5.31,10.98-9.152,15.01-14.12c2.477-2.889,1.206-10.067,1.063-11.325
	c-0.502-2.595,1.77-5.05,0.599-7.597c-1.182-2.784,0.939-5.697-0.259-8.433c-0.906-2.396-0.772-5.034-0.237-7.489
	c-1.001-0.721-14.946-7.123-21.792-27.7c-0.421-1.079-8.326-22.813-9.728-29.874c-19.508,4.788-33.485-77.511-13.294-72.341
	c1.424,1.203,2.374,2.833,3.55,4.262c0.734-0.07,1.462-0.135,2.191-0.205c-0.68-2.207-2.773-3.642-3.275-5.93
	c-0.674-1.753-0.34-3.647-0.631-5.444c-0.847-1.613-2.093-3.043-2.482-4.872c-0.604-1.748,0.259-3.922-1.16-5.341
	c-1.441-1.78-2.228-4.025-2.309-6.302c-0.016-2.223-1.295-4.225-1.084-6.464c0.432-4.37-2.52-8.417-1.414-12.792
	c1.111-3.205,4.753-3.987,7.305-5.681c-0.985-16.659,7.209-19.908,14.416-29.809c0.286-1.527,0.049-3.172,0.799-4.591
	c1.387-3.631,3.162-7.489,6.712-9.474c2.087-9.102,0.416-11.063,3.874-14.956c1.7-2.104,4.699-2.331,6.518-4.295
	c2.006-1.971,8.437-4.996,12.533,1.263c9.926-6.225,7.291,1.7,19.202-5.66c0.097,0.496,0.291,1.484,0.383,1.98
	c2.591-0.294,8.176-5.328,13.046-5.39c1.167-4.811,1.192-11.346,12.749-9.393c2.354,0,8.147-4.953,11.514,9.447
	c9.072,0.59,11.987,4.786,14.443,5.509c13.61,1.627,14.772-0.06,19.143,3.448c1.608-1.592,9.397-7.128,13.936-1.403
	c1.198,1.834,3.922,1.144,5.255,2.854c1.851,2.115,2.59,4.937,3.993,7.343c2.002,3.345,1.176,7.451,2.476,11.001
	c0.448,0.437,1.009,0.745,1.543,1.079c-0.011,0.502-0.016,0.998-0.016,1.511c2.135,1.298,3.621,10.14,4.85,13.03
	c1.349,0.254,3.334-0.076,4.025,1.435c1.622,2.879,9.177,10.097,7.624,14.681c-0.464,1.807,1.209,3.243,1.365,4.98
	c0.2,1.975,0.41,3.971,1.198,5.822c1.646,0.351,3.502,0.475,4.813,1.673c3.836,2.77,2.847,11.155,2.908,12.156
	c0.119,1.834-1.43,3.318-1.284,5.169c0.173,2.104,0.906,4.478-0.475,6.35c-1.392,1.737-0.464,4.02-0.933,6.021
	c-0.54,1.948-1.786,3.577-2.935,5.207c0.599,2.843,0.685,6.118-1.176,8.541c-0.896,1.3-2.892,2.433-1.824,4.208
	c4.152-2.928,11.593,1.007,11.438,5.93c-0.054,8.187,4.106,29.08-14.848,62.284c-0.766,1.435-2.352,2.131-3.723,2.859
	c-1.462,0.745-3.065,0.113-4.521-0.27c-5.215,28.416-13.829,34.609-16.817,41.534c0.069,4.563,1.726,1.14-1.004,9.712
	c0.062,2.448,2.551,3.817,0.361,11.158c-0.858,2.012,0.599,3.987,0.637,6.027c0.394,3.038-1.764,5.876-0.836,8.908
	c0.707,2.547,0.049,5.131-0.264,7.672c1.002,0.499,23.35,5.937,31.309,3.906c2.957-0.799,6.027-0.496,9.048-0.556
	c10.761-11.68-1.681-10.902,54.606-37.228c27.238-16.767,7.757,1.6,46.265-37.897c4.543-5.838,10.564-10.327,15.134-16.143
	c4.176-4.073,7.041-9.21,10.764-13.661c0.545-0.674,0.227-1.635,0.308-2.417c-0.829-12.161,8.252-24.253,9.043-30.203
	c3.937-15.828-4.884-13.24,4.926-32.912c0.977-1.656,0.162-3.669,1.041-5.341c2.336-5.557,4.823-11.044,7.143-16.607
	c0.056-0.122,6.573-32.723,14.195-48.925c2.342-4.861,4.845-9.658,6.933-14.632c1.111-4.672-1.052-9.436-0.059-14.109
	c2.309-5.433,4.883-10.758,7.338-16.121c0.674-4.695,4.954-9.343,5.546-10.343c8.676-15.387,18.439-88.044,18.727-105.301
	c-5.572,4.524-15.294-1.78-15.555-4.511c-0.664-4.106-1.279-8.233-1.219-12.404c-0.923,0.13-1.84,0.291-2.741,0.486
	c-2.254-3.735,0.039-12.19-0.496-26.254c-0.998-5.568-4.106-10.451-5.919-15.744c-1.02-13.946,5.34-16.325,7.057-19.429
	c-1.95-8.866,1.47-3.784-3.005-10.456c-1.004-3.804,0.642-7.667,0.254-11.503c-0.82-1.829-2.563-3.124-3.205-5.045
	c-0.216-2.396,2.703-3.885,2.212-6.372c0.297-1.759-2.012-2.579-1.71-4.332c-0.254-1.252,0.987-1.926,1.586-2.833
	c0.49-5.41-2.215-29.799-8.638-42.866c-13.979-24.932-15.148-10.318-21.603-31.946c-0.917-2.503,0.583-5.228,2.579-6.733
	C433.372,25.684,434.106,21.961,436.912,19.954 M462.766,158.21c-3.729,7.178-2.546,15.066,0.022,18.382
	c1.5-2.935,0.626-6.334,0.971-9.485C463.77,164.172,464.611,160.762,462.766,158.21 M563.055,252.926
	c-4.43,0.728-8.848,2.59-13.391,1.592c-5.152,20.103-6.303,44.583-7.084,65.419c3.319-0.911-0.743,1.131,11.584-21.36
	c15.7-28.631,14.128-38.873,12.442-48.062C565.435,251.329,564.571,252.758,563.055,252.926 M221.4,600.133
	c-2.347,9.73,0.466,17.031,2.584,18.182c3.091-11.068-1.757-2.335,1.495-15.339c-0.248-1.71-0.912-3.324-1.29-4.996
	C223.239,598.644,221.988,599.081,221.4,600.133 M343.054,727.911c-21.893,41.494-15.674,79.657-16.213,90.664
	c0.718,0.259,1.435,0.534,2.158,0.826c0.205,1.144-0.496,2.892,0.874,3.475c0.394-5.093-0.707-10.413,1.198-15.29
	c1.435-3.939,1.203-8.303,3.043-12.113c1.031-1.662-0.194-3.421,0.016-5.169c0,0,3.02-14.534,3.561-22.623
	c3.24-6.505,0.718-7.649,6.194-12.447c-0.658-5.758-3.672-6.328,0.388-21.819c0.685-3.28,1.516-6.534,2.083-9.836
	C344.991,724.793,343.901,726.293,343.054,727.911 M324.24,868.358c-0.243,2.978,0.113,5.994-0.453,8.956
	c-0.243,2.196-0.987,4.397-0.604,6.626c0.588,3.303,5.466,5.14,4.775,6.685c-0.691,2.05-1.797,3.933-2.773,5.859
	c1.819,2.979,2.053,2.887-1.7,8.185c-0.766,1.101-2.11,1.608-2.897,2.681c0.718,2.174,0.831,4.457,1.149,6.712
	c1.198,1.948,2.584,3.836,4.273,5.401c2.346-4.953,0.6-10.146,1.559-18.544c0.243-4.03,1.888-7.856,1.856-11.913
	c0-0.046-3.863-17.686-3.944-18.22C325.249,869.896,325.314,868.665,324.24,868.358z"/>
</svg>
