<?xml version='1.0' encoding='utf-8'?>
<svg xmlns="http://www.w3.org/2000/svg" enable-background="new 0 0 1198.267 1702.072" version="1.1" viewBox="0 0 1198.267 1702.072">
<path d="m1159.4 1609.1c8.056-35.617-6.116-42.575-8.546-63.589-1.841-15.913-17.404-64.305-17.404-70.35 0.184 0.479 0.367 0.958 0.551 1.436-0.286-1-14.881-52.265-16.52-54.759 0.105 0.159 0.24 0.213 0.406 0.16-27.614-92.49-52.948-122-68.513-165.72-1.031-1.406-5.87-12.038-6.686-13.897-1.19-2.2-3.002-4.028-3.908-6.375-1.299-2.778-1.763-5.993-3.799-8.378-1.626-1.785-3.668-3.269-4.77-5.458-1.839-5.784 8.376-5.39 0.338-16.56 2.063-0.289 3.624-1.648 4.967-3.138-0.207-2.887 0.393-5.802 0.016-8.651-4.241-11.632 3.596-11.181 1.572-22.439-1.261-3.002-4.645-4.034-6.932-6.026-0.868-1.173-0.038-2.816-0.873-3.984-1.184-2.063-3.095-3.875-5.524-4.203-36.305-5.219-31.524-2.444-33.863-5.54-10.369-16.819-14.646-13.617-29.884-49.266-2.729-5.776-3.032-16.041-3.81-18.754-0.464-4.121-4.569-6.943-4.186-11.271-0.289-1.632 1.174-2.625 2.167-3.63 0.164-2.44-0.044-4.874-0.382-7.276-3.791-67.486 10.282-65.544-30.129-114.92-22.874-25.001-31.585-21.714-85.983-57.038-26.776-18.532-63.984-50.654-163.69-81.421-40.303-12.437-111.3-20.56-112.3-20.276-2.498-8.628-5.532-8.035-7.254-11.544 0.513 0.087 1.037 0.186 1.567 0.289-0.129-6.563 0.376-6.009-2.887-10.36 3.054-10.086 0.042-18.83-3.99-28.596-13.687-27.705-65.012-116.17-65.646-117.18-9.822-16.064-14.306-18.191-23.951-40.02-28.506-67.254-56.205-87.481-68.119-101.49-8.698-4.711-18.564-28.98-25.703-38.202-41.493-63.536-110.04-154.12-107.92-159.97 0.573-1.856 3.133-3.543 1.725-5.562-1.681-2.412-4.814-1.234-7.265-1.517-52.424-82.225-28.449-80.969-48.786-137.39-0.431-2.231-7.839-28.401-6.517-35.435 1.427-7.136 0.645-32.11 0.421-29.939 0.706-6.855 1.376-5.906 4.693-8.574 1.506-0.868 0.535-2.767 0.54-4.137-1.648-0.715-3.095-1.801-4.727-2.538-1.517-0.213-3.078 5e-3 -4.579-0.327-1.474-1.108-2.44-2.724-3.755-3.985-2.003-0.377-4.099-0.278-6.113-0.055-1.069 0.768-5.647 5.249-9.082 11.697-0.764 1.408-2.402 1.97-3.368 3.204-1.921 1.861-2.041 4.689-3.209 6.976-0.999-0.349-1.943-0.841-2.958-1.135-1.597 1.249-7.604 3.323-3.39 18.427-6.747 20.241-6.734 32.693-10.379 57.835-6.936 47.845-32.114 52.132-30.574 86.813-1.428 16.652 27.49 22.87 35.034 25.076 17.706 5.176 37.116 44.749 35.41 51.97-0.324 1.37-3.133 6.028 2.876 5.051 0.819 1.654 1.436 3.4 1.807 5.218-1.617 2.075-0.755 4.049-3.318 5.505-11.648 6.617-18.007 14.318-6.299 20.826 6.564 2.521 14.932-5.354 17.33-6.19 30.201 78.485 28.271 93.134 67.588 144.38 38.913 50.724 76.489 55.683 85.521 163.45 2.754 16.414 4.784 72.005 10.944 94.58 2.702 12.117 6.495 23.978 8.913 36.172 4.196 14.722 14.026 81.87 14.235 82.878 3.203 34.585 6.484 27.824 1.272 32.629-2.753 1.941-18.214 16.914-19.218 17.881-59.623 41.199-116.4 107.65-117.41 108.65-0.437-0.098-0.873-0.18-1.31-0.251-0.109 0.098-0.333 0.289-0.448 0.388 0.65 0.251 1.108 1.114 0.388 1.61-68.65 67.747-57.653 93.954-60.674 121.13-14.958 134.62-3.494 230.87-37.127 304.04-2.194 4.193-10.637 17.804-15.076 19.349-18.202 9.202-11.827 5.703-25.708 16.828-1.921 0.974-20.062 14.219-21.56 15.021-8.832 6.507-20.061 8.019-42.099 19.115-3.817 1.357-6.791-3.607-13.688 2.238-2.155 1.826-3.306 4.657 0.376 10.226 1.096 1.657 2.185 5.564 6.757 7.934 8.851 4.587 21.5-2.774 25.975-2.905 0.539-0.016 15.217 1.625 22.844 1.684 12.644 0.097 8.779-1.336 13.754-1.77 1.703-0.147 3.39-0.513 4.912-1.305 4.608-2.273 7.655-0.375 17.69-8.488 2.238-1.681 5.109-1.981 7.816-1.768 2.192 0.2 29.189-12.798 40.422 1.94 12.989 17.041 42.274 18.749 51.431 10.291 12.362-11.42 3.84-36.851 3.096-41.867-5.705-38.427 2.155-75.381 9.915-92.12-0.087-2.756 1.605-5.027 2.276-7.598 11.063-44.905 23.949-67.781 32.02-95.618 25.679-88.566-10.12-118.75 5.063-152.27 18.598-39.3 139.35-82.425 170.33-113.03 3.046-1.103 6.271-1.818 9.115-3.422 1.534-1.032 2.614-3.57 4.82-2.86 3.929 0.398 7.504 2.674 11.531 2.233 1.701-0.186 3.088-1.208 4.759-1.498 1.803-0.312 3.987-0.042 5.86-0.206 102.01-8.915 83.72-27.346 95.691-31.803 2.917-1.086 4.833-0.946 3.943-4.715-0.767-3.244 2.157-2.614 3.157-2.632 7.475-0.135 0.608-11.16 7.284-9.706 5.189 1.13 0.716 3.172 20.496 4.077 0.448-0.655 0.895-1.299 1.348-1.927 1.998 1.528 4.312 0.36 6.452-0.12 3.126 1.865 1.748 5.044 11.108 9.148 7.337 3.217 0.932 4.129 17.466 8.583 4.385 1.181 3.633 2.709 4.33 4.461 2.6 6.543 12.368-1.602 17.121 1.791 2.421 1.729 3.047 5.759 5.96 6.361 1.979 0.409 7.541-2.678 9.186 3.804 0.501 1.973-0.73 5.048 0.482 6.659 1.264 1.68 4.532 1.584 6.123 3.181 2.46 2.468 5.418 4.793 8.307 6.735 2.574 1.731 5.424 2.152 7.467 4.689 4.885 6.065 2.566 4.884 11.308 8.411 5.204 2.1 9.751 5.784 12.915 10.418 3.476 5.09 4.408 3.281 7.401 3.376 7.186 0.229 5.401 10.534 6.071 12.831 0.294 1.007 20.009 46.546 55.363 60.286 2.92 2.058 7.205 4.912 10.485 1.932 3.635 1.506 7.45 2.462 11.2 3.641 0.763 0.38 16.795 20.244 17.393 20.882 11.879 12.688 4.086 18.669-2.47 29.061-1.436 2.363-4.514 2.674-6.075 4.874-11.692 16.475-18.164 23.763-29.764 24.96-3.084 1.474-5.606 3.924-7.887 6.435-0.933-1.124-1.861-2.287-3.182-2.937-0.153 1.163-0.202 2.347-0.235 3.537 0.595 0.54 1.195 1.086 1.812 1.643 0.093 1.785-0.377 3.526-1.397 5.005-2.063-1.938-3.581-4.312-5.278-6.533 0.142 0.611 0.289 1.234 0.442 1.878-0.873-0.202-1.736-0.393-2.593-0.551 0.502 1.245 1.075 2.484 1.397 3.821-0.393-0.3-0.775-0.584-1.141-0.857-0.377 0.246-0.759 0.486-1.146 0.726-1.523-0.497-2.876-1.365-4.252-2.134 0.333 0.497 0.677 1.015 1.021 1.55-0.841 0.371-1.659 0.775-2.467 1.201-1.468-0.115-2.942-0.366-4.405-0.191-0.617 1.523 1.081 1.714 2.069 2.265 1.632 0.666 2.887 2.194 4.749 2.292 1.594-0.076 2.565 1.255 3.526 2.325-1.872-0.022-3.673-0.491-5.415-1.103 0.404 0.671 0.846 1.343 1.294 2.02-0.518 0.142-1.021 0.311-1.512 0.497-3.212-2.549-15.92-3.961-18.471-3.521-0.229 0.562-0.442 1.141-0.649 1.736 0.562 0.142 1.13 0.306 1.714 0.486 2.791 3.731-1.779-0.23 12.898 5.977-0.289 0.229-0.873 0.677-1.163 0.901 3.903 1.232 12 5.478 14.219 8.913 0.682 1.097 2.063 1.299 3.198 1.725 1.153 10.928-1.162 1.489-14.502 3.297-2.636 0.453-4.781 2.118-7.178 3.138-1.561-0.48-2.92-1.414-4.339-2.167-0.551 0.475-1.103 0.944-1.637 1.446-4.667-3.744-8.095-8.711-11.675-13.432-1.97-2.358-2.604-5.415-3.914-8.095-0.12 1.092-0.164 2.2-0.235 3.324-1.588-1.43-2.582-3.33-3.864-4.994-0.273 0.087-0.808 0.267-1.075 0.36-0.737-1.283-2.091-2.096-3.559-1.479-0.748 1.332-1.064 2.893-0.338 4.323-0.797-0.3-1.594-0.59-2.38-0.841 0.011 1.321-0.48 2.996 0.764 3.957 0.841 1.212 2.74 1.992 2.68 3.641-0.895 0.606-1.987 0.77-3.013 1.015 0.229 0.693 0.458 1.37 0.693 2.101-1.648 0.131-3.297 0.038-4.94 0.066 5e-3 0.677-0.022 1.386 0.076 2.091 1.348 1.452 3.231 2.385 4.246 4.165-0.835 0.076-1.659 0.164-2.473 0.256 1 0.68 16.661 14.917 25.736 18.853 1.113 0.742 2.915 1.042 3.242 2.56 0.027 1.523 2.151 0.197 2.642 1.403 0.382 2.03 0.628 4.132 0.6 6.211-0.96 1-9.973 4.968-9.132 26.347-1.037-0.371-2.074-0.715-3.155-0.879-0.038 1.092 0.371 2.058 1.195 2.816-0.917 0.191-1.812 0.442-2.718 0.65 0.333 0.595 1.768 1.223 0.813 1.916-1.294 1.021-3.078 0.939-4.596 1.375-0.06 0.459-0.115 0.933-0.169 1.425 0.644 0.213 1.299 0.442 1.959 0.699-0.851 0.475-1.703 0.977-2.418 1.654 0.851 0.12 1.714 0.251 2.593 0.382-4.472 4.246-0.576 8.146-6.79 12.559 3.117 1.135 6.364 2.079 9.721 1.594 7.941 8.451 9.342 11.109 12.156 10.392 0.158 2.254-0.24 4.792 1.648 6.473 0.246-0.115 0.742-0.333 0.988-0.448-0.371 1.179-0.737 2.615 0.644 3.308 1.299-1.179 2.669-2.287 3.859-3.57 1.032 1.332 2.423 2.352 4.137 2.582 0.699 1.348 1.326 2.855 2.636 3.761 17.209 0.527 12.946 1.169 17.919 1.97 2.303 0.726 4.612-0.311 6.948-0.229 3.133 0.082 5.966-1.485 8.307-3.439 0.136-1.157-0.169-2.827 1.288-3.22 5.819-1.863 5.851-6.58 6.632-8.127 1.549-4.002 4.152 0.406 7.407 0.715 1.664 2.591 5.846 10.913 3.542 12.925 5.668 5.982 5.51 3.996 8.788 6.806 1.539 0.944 2.342 3.193 4.427 2.997 1.73 0.049 3.34 0.715 4.983 1.195 2.325 0.742 4.874 0.136 7.167 1.07 1.665 0.764 3.515 0.469 5.294 0.666 0.715 0.328 1.114 1.086 1.67 1.654-2.358 2.44-3.968 5.475-6.288 7.953-1.583 1.654-3.04 4.061-1.965 6.375 1.337 1.512 3.046 2.669 4.361 4.23 0.546-0.622 1.108-1.234 1.736-1.768-0.311 1.081-0.753 2.14-0.966 3.264 0.655 0.6 1.43 1.07 2.183 1.578 0.693 0.136 1.397 0.311 2.101 0.508 1.768-2.109 4.91-7.913 6.675-10.458 1.01-1.889 3.455-1.779 5.131-2.762 0.764 1.135 1.534 2.276 2.216 3.482 0.862-0.475 1.736-0.933 2.631-1.359-0.159-6.781 2.211-12.833 4.279-16.178 1.987-1.692 4.334-3.248 5-5.949 2.03-1.053 3.788-2.571 5.207-4.356 0.966-0.038 1.976-0.104 2.855-0.573 1.01-1.479 0.911-3.384 1.375-5.054 2.642 0.36 5.638-1.545 5.425-4.427 0.742 0.355 1.485 0.704 2.238 1.092 21.362-4.502 12.794-0.112 21.104-3.373 5.274-2.07 31.963-7.048 36.005-6.975 1.108 1.213 57.766 107.64 53.316 127.8-3.445 5.345-6.429 5.599-9.972 5.966-8.277 0.315-19.458-0.451-21.958 0.797-3.4 1.114-6.566 3.122-10.218 3.329-6.415 0.881-47.982 1.509-48.07 1.517-3.04 0.48-5.507 2.691-6.828 5.398-1.203 3.135-9.369 3.418-13.253 5.857-2.763 1.644-5.539 6.753-5.674 7.755-0.845 6.277 10.695 5.605 17.038 5.427 1.703 0.027 2.931-1.359 4.405-2.003 2.036-0.2 11.951-0.366 15.043 1.703-2.717 3.763-13.618 3.146-10.856 11.451 4.128 7.312 20.467 0.227 23.017-0.076 8.952-2.292 15.518-1.66 18.088-2.091 6.258-0.864 17.755-8.189 26.178-7.336 5.993-0.644 11.593-3.51 17.652-3.892 1.053-1.103 2.211-2.101 3.46-2.975 1.043 1.375 2.178 2.68 3.346 3.974-2.667 2.023-6.89 4.297-11.102 10.534-2.799 3.733-0.811 12.321 5.748 13.815 7.268 2.403 16.713-8.408 22.128-13.809 6.846-3.769 8.683-3.041 10.795-3.844 9.546-3.63 7.023-12.486 8.52-21.133 0.212-1.223-0.536-9.486 0.258-9.885 0.802-0.404 1.594-0.857 2.445-1.179 10.534 5.934 15.518 23.906 16.233 24.906 5.055 7.076 12 24.241 16.721 31.323 6.35 12.088 12.496 23.843 14.769 37.352 0.336 1.998-0.315 4.758 0.61 6.539-1.615-0.426-3.119 0.22-4.688 0.076-3.433-0.315-5.397-2.649-13.538-1.314-1-0.514-13.621-5.289-18.213-2.067-1.224 0.859-1.763 2.002-3.226 2.573-2.429 0.928-4.399 2.969-7.068 3.198-2.517 0.255-9.529 2.937-9.945 5.507-1.842 6.947-3.744 4.379-12.619 5.043 0-1-21.895-2.826-36.821 3.821-6.134 2.753-17.953 4.25-20.714 5.644-3.427 2.199-4.3 6.031 1.91 8.951-0.284 0.633-0.551 1.283-0.797 1.96-16.203 3.023-7.466 10.545-6.042 13.705 1.135 0.077 2.281 0.18 3.433 0.284 2.839 4.684 2.915 4.171 7.505 5.436 4.568 10.488 42.018-2.321 46.051-3.209 2.661-0.586 11.411 0.809 15.447-1.184 2.675-1.512 5.36-3.188 8.427-3.75 0.519 2.511-1.97 3.646-3.739 4.743-2.8 1.408-5.344 3.379-8.4 4.241-2.691 0.912-5.769 0.933-8.067 2.795-3.281 2.629-9.346 6.073-6.894 10.578 0.972 2.169 7.665 6.49 10.617 5.59 0 0 4.608-2.415 11.323-5.304 46.544-19.593 23.315-10.38 35.224-13.075 1.736-0.393 3.417 0.47 5.163 0.289 23.449-1.95 43.168 1.06 52.323-3.242 5e-3 -0.169 0.011-0.508 0.011-0.677 4.614-1.589 7.954-6.763 9.694-11.036 1.452-2.695 0.988-5.806 1.075-8.721z"/>
</svg>