<?xml version="1.0" encoding="UTF-8"?>
<svg enable-background="new 0 0 1964.601 1689.422" version="1.1" viewBox="0 0 1964.601 1689.422" xmlns="http://www.w3.org/2000/svg">
 <path d="m596.68 46.812c2.36-2.565 11.24-5.634 12.609 8.424 0.289 3.583 0.834 7.15 1.884 10.597 1.956-0.713 3.936-1.395 5.892-2.148 11.556 4.307 15.511 36.37 17.522 49.152 0.721 0.818 1.571 1.491 2.413 2.204 0.729-9.579-1.226-19.061-1.379-28.6-0.573-4.957 8.226-9.497 11.935 0.609 6.968 20.253 5.029 31.218 10.525 44.84 4.736 12.226-3.164 40.206-9.507 53.24-9.106 17.067-20.544 262.23-24.368 279.68-2.781 7.695-8.745 14.084-10.108 22.348-2.593 17.2-43.237 155.02-44.784 159.66-31.418 87.699-38.43 97.082 32.792 166.4 8.421 8.278 22.406 10 38.78 31.766 5.416 6.775 13.147 8.325 14.148 9.018 8.823 12.217 12.337 9.556 18.588 18.308 3.976 6.132 10.292 10.116 15.919 14.564 1.025 1.01 18.607 29.446 55.292 50.571 27.807 18.446 36.522 13.271 47.285 20.055 3.431 2.381 7.767 1.034 11.647 1.419 62.12-2.905 233.52 48.618 331.8 124.73 1.001 0.716 149.6 112.29 162.81 121.73 94.163 62.009 77.08 1.408 297.97 144.51 1.006 0.564 25.427 13.771 37.385 23.478 29.688 24.821 19.388 4.573 60.615 40.391 1.9 1.9 4.745 0.802 7.118 1.403 6.22 1.972 11.952 5.186 18.164 7.214 2.661 1.836 3.375 5.395 5.09 8.032 4.048 0.633 7.431 3.086 11.23 4.481 12.152 4.6 4.614 7.565 19.991 7.735 3.623-3.639 6.252-8.104 9.795-11.807 22.577-21.136 47.308-3.464 28.079 22.444 8.163 7.794 22.197 3.408 37.569 18.268 27.128 26.765 61.768 6.157 77.519 45.048 11.28 30.321-8.236 58.75-28.952 83.66-3.744 4.416-1.505 7.441-19.703 14.885-2.252 0.89-3.639-1.427-4.777-2.878-37.417 2.948-29.395-28.097-45.609-32.039-2.255 5.811-12.012 27.69-20.24 28.448 0.825 0.761 1.659 1.563 2.485 2.405-1.579 1.026-3.142 2.068-4.689 3.134 0.52 4.644 1.206 2.639-9.523 18.388-1.202-0.369-2.308-0.721-3.391-1.202 0.233 1.523 0.441 3.07 0.665 4.641-0.401 0.24-1.202 0.713-1.603 0.954-1.547 2.677-3.311 5.234-5.154 7.719h-37.746c-0.369-1.611-0.681-3.222-0.938-4.825-13.507-8.022-20.228-22.226-21.602-29.898-7.509-27.867-23.106-28.622-27.83-31.381-2.704-1.541-14.573-13.786-7.078 8.513-0.849-1.876-1.627-3.759-2.349-5.651-1.988 0.417-4.569 0.273-5.667 2.325 0.361 6.284 5.395 11.286 5.515 17.683 0.397 7.816-7.246 5.933-9.787 0.457-2.092-3.535-2.365-7.855-4.617-11.27-2.939-0.992-21.327-2.144-15.775-20.809 4.017-13.153 5.565-14.124 4.865-17.234-1.011-1.012-10.21-9.586-16.937-9.298-4.571 15.754 2.182 31.419 2.461 41.193-0.425-0.104-1.274-0.297-1.699-0.393-8.353-35.231-1.981-25.612-3.791-37.145-6.115 0.422-69.448-11.679-70.45-11.807-263.37-26.693-242.86-89.941-531.35-128.83-53.383-13.928-143.98-20.266-215.97-68.43-121.61-68.334-146.16-177.28-261.58-200.29-1.403-0.649-2.413-1.844-3.551-2.822-7.414-0.89-14.019-4.769-20.881-7.447-2.757 0.914-4.825 3.535-8 3.174-5.272-12.573-5.926-4.211-13.57-6.597-4.144-1.194-8.954-2.172-11.03-6.421-9.597 0.932-30.588-7.967-34.179-9.579-0.417-0.77-0.818-1.523-1.218-2.26-1.82-0.104-3.639-0.233-5.443-0.337-8e-3 -0.385-0.016-1.154-0.024-1.539l-0.313 1.066c-9.71-4.07-8.972-0.616-13.57-2.012-15.676-4.887-2.716-8.139-25.778-12.472-0.199 27.765-30.094 501.3-55.541 508.18-13.192 5.396-25.96 15.656-28.119 17.691-6.204 4.849-14.116 6.933-20.36 11.703-4.409 4.369-11.134 5.443-17.081 4.914-0.585-4.136-2.341-8.056-2.525-12.224 1.058-4.321 4.577-7.575 5.563-11.959-22.464-2.678-89.33 37.46-91.627 21.482 1.72-7.911 14.761-12.244 16.552-17.073-7.854 0.131-30.579 10.333-38.828 4.833-1.571-2.565-0.12-5.386 1.09-7.719 3.647-1.162 8.585-1.371 9.851-5.739-3.086-1.884-5.707-6.012-3.31-9.426 6.289-4.924 20.995-2.062 24.023-14.388 43.17-23.597 36.432-25.708 60.951-21.819 6.582 1.009 41.477-5.557 43.148-6.421 11.737-9.028 10.149-14.411 11.19-17.779 4.688-15.555-6.377-99.167-13.779-131.3-28.088-134.32 31.38-89.06-15.879-324.63-9.995-93.178 23.369-86.102-2.605-123.03-1.387 0.12-2.749 0.264-4.128 0.401-3.902-33.365 5.086-33.409-1.09-39.325-7.858-1.072-20.208 2.593-43.493 2.95-1.948 5.098-3.968 10.188-6.918 14.813-0.762-5.21-0.337-10.901-3.359-15.494-1e-3 2e-3 -8.705 23.55-8.705 23.55 0.353 5.403 3.519 10.541 2.325 16.047-0.585 3.519-2.493 6.717-2.717 10.3 0.409 3.607 2.333 6.877 2.445 10.549 0.782 6.287-2.74 5.065 6.581 21.642 3.045 5.731 6.971 27.447 6.549 40.038-0.27 11.072 8.983 21.817-0.192 40.407-0.521-2.485-0.705-5.01-0.89-7.511-8.087 1.14-3.4 6.522-8.08 10.076-10.128 8.678-5.054 8.09-22.548 10.549-0.048-0.729-0.16-2.188-0.208-2.918-4.264 1.547-9.755 2.613-11.334 7.535-2.02-0.096-4.04-0.216-6.044-0.385 0.064-3.807 2.188-7.03 3.214-10.565-0.04-3.647 0.521-7.262 2.373-10.461 1.082-0.786 2.541-1.29 3.222-2.501 1.515-5.948 1.675-12.12 1.218-18.203 0.042-21.855 7.475-55.316 9.178-64.855 0.633-3.198-1.659-5.924-2.124-8.961-1.002-3.671-0.481-8-3.23-10.982-5.226-6.308-9.018-13.987-9.418-22.284-8.857-1.798-9.145-6.594-10.004-10.613-1.13-0.505-2.252-0.994-3.375-1.483 10.82-12.168 18.452-10.824 8.112-31.878-15.022-7.297-2.314-4.133-22.933-9.443-1.299 0.248-2.605 0.497-3.904 0.745-5.3-3.786-3.076-3.508-11.238-3.984-3.67-5.549-0.309-0.169-12.048-6.132-1.627 0.609-2.926 2.068-4.697 2.228-2.894-1.09-4.248-4.08-5.611-6.605-3.639-1.635-7.623-2.533-11.527-3.318-0.305-0.256-0.922-0.753-1.226-1.01-3.262-0.208-6.645-0.93-9.066-3.286-2.052-2.236-5.282-1.723-7.927-2.581-1.595-0.377-1.707-2.284-2.405-3.479-2.749-1.86-5.298-4.016-7.463-6.541-2.805-4-7.871-4.97-11.799-7.487-1.408-4.661-3.152-13.1-9.955-24.568-3.34-5.475 0.765-6.727-6.324-9.771-1.804-3.607-3.888-7.174-4.328-11.27-0.377-3.399-3.767-5.531-4.144-8.905-0.064-2.701 2.733-4.16 3.527-6.517 4.535-29.505 5.384-40.36 20.216-54.667 3.214-4.505 4.2-10.316 8.04-14.428 1.523-1.611 2.509-3.607 3.278-5.659 3.647-2.028 7.847-4 9.875-7.839 14.957-7.945 25.402-11.799 25.402-11.799 2.272-12.169 6.269-4.194 10.533-9.002 2.349-2.381 5.459-3.695 8.729-4.216 8.679-13.49 28.982 1.227 38.547 0.208 9.519-1.336 19.818 14.349 34.668 7.35 1.771-0.914 3.174 0.906 4.609 1.683 3.663 2.765 8.593 1.667 12.737 3.086 4.793 2.212 8.344 6.348 13.009 8.793 1.651 2.757 3.102 5.683 5.387 7.992 2.95 6.145 7.953 3.058 14.124 11.783 3.399 4.817 8.938 7.607 12.128 12.609 8.635 10.008 2.354 4.237 13.226 10.092-1.122 0.826-2.26 1.643-3.383 2.469 0.794 2.317 3.022 3.399 4.745 4.922 1.21 1.507 1.443 3.735 2.998 4.986 1.78 0.649 4.12-0.874 5.547 0.834 7.179 7.206 8.356 3.09 7.214 11.086 1.667 2.91 4.248 5.09 7.27 6.517 0.152 0.521 0.465 1.563 0.617 2.084 3.062 1.659 6.573 1.571 9.955 1.715-0.289 0.938-0.585 1.884-0.858 2.838 1.852 3.294 2.95 7.302 6.405 9.354 3.343 2.14 5.908 5.827 10.052 6.437 24.673 3.596 28.456-4.668 38.251-13.322 0.729-1.779 0.641-3.831 1.547-5.523 1.371-0.553 2.838-0.81 4.28-1.162 1.147-12.043 18.42-3.877 20.472-7.903 0.625-1.347 0.593-2.87 0.818-4.296-14.378-15.705 11.228-65.06 21.546-84.661 0.332-0.285 29.897-50.534 35.87-57.12 32.929-37.193 71.263-142.57 71.508-176.62 2.371-58.963 54.254-160.57 48.262-267.63-4.523-28.298-60.953-66.095-61.953-67.091-1.619-1.491-0.713-3.936-0.89-5.851 20.98-12.6 34.454 16.801 52.607 16.023 8.785-3.111-1.756-70.472 10.725-75.98 3.391-2.052 6.805 1.082 9.875 2.341 0.721-2.699 1.074-5.753 3.166-7.813m719.76 1303.3c3.27 11.802 84.16 33.677 94.929 33.578-7.947-11.645-79.493-33.536-94.929-33.578m449.91 82.89c-2.429 2.669-5.771 5.419-5.443 9.426 9.608 0.611 6.199 3.229 10.701 4.585 15.014 5.129 9.494 2.344 16.569 3.92 9.379 2.249 14.285-29.369-1.651-27.43-7.88-0.649-14.958 4.049-20.176 9.499m-250.46-6.565c0.096 4.124 60.245 29.364 67.043 28.752 9.385 8.823 19.482 11.679 20.969 11.831 19.201 3.386 16.882 7.535 28.728 8.401 10.682 1.489 8.606 9.804 14.436 12.985 0.754 0.358 18.792 5.918 20.095 5.907 4.144-3.864 9.466-6.204 14.941-7.503-0.304-1.146-0.369-2.437-1.387-3.142-10.583-8.674-10.571-5.593-15.174-3.815-1-0.307-136.22-59.151-149.65-53.416m129.56 148.52c0.048 3.359-0.401 6.998 1.162 10.124 1.731 2.926 6.332 3.679 8.922 1.451-0.521-4.032 0.112-8.288-1.78-12.024-3.217-6.842 1.567-12.032-4.345-14.22-2.012 4.657-4.063 9.491-3.959 14.669m17.506 3.583c0.866-0.898 1.747-1.787 2.637-2.669-1.092-9.089-1.879-11.184-4.32-12.024-1.581 3.387-0.587 11.806 1.683 14.693z"/>
</svg>
